<?xml version="1.0" standalone="no"?>
<!DOCTYPE svg PUBLIC "-//W3C//DTD SVG 20010904//EN"
 "http://www.w3.org/TR/2001/REC-SVG-20010904/DTD/svg10.dtd">
<svg version="1.0" xmlns="http://www.w3.org/2000/svg"
 width="836.000000pt" height="836.000000pt" viewBox="0 0 836.000000 836.000000"
 preserveAspectRatio="xMidYMid meet">
<metadata>
Created by potrace 1.11, written by Peter Selinger 2001-2013
</metadata>
<g transform="translate(0.000000,836.000000) scale(0.100000,-0.100000)"
fill="#000000" stroke="none">
<path d="M2430 6937 c0 -2 16 -22 37 -43 30 -33 33 -34 15 -8 -21 30 -52 61
-52 51z"/>
<path d="M4111 6862 c-14 -27 -9 -218 7 -214 9 1 12 -23 12 -98 0 -115 13
-156 58 -188 16 -12 48 -51 72 -87 23 -36 48 -65 56 -65 7 0 21 -11 30 -24 8
-14 40 -45 69 -69 41 -34 68 -47 115 -57 37 -8 66 -20 73 -30 10 -17 13 -16
53 5 48 26 138 116 153 154 22 56 118 627 107 638 -2 2 -7 -9 -11 -24 -6 -25
-8 -26 -19 -11 -12 16 -14 16 -26 -7 -7 -14 -10 -28 -7 -31 4 -4 10 3 14 14 8
20 8 20 20 -4 6 -13 7 -24 3 -24 -5 0 -11 6 -13 13 -3 7 -6 4 -6 -7 -1 -14 -4
-16 -14 -7 -8 6 -18 7 -22 3 -5 -4 -5 -2 -2 4 10 17 -14 23 -43 11 -33 -13
-89 -19 -70 -7 8 5 18 6 22 4 4 -3 5 2 1 11 -3 9 -9 13 -12 8 -11 -17 -76 -38
-65 -22 3 5 -2 9 -11 9 -9 0 -14 -4 -11 -8 3 -5 -1 -9 -8 -9 -8 0 -12 8 -9 21
4 18 2 18 -12 -4 -15 -23 -15 -24 -10 -2 6 22 -8 31 -20 12 -3 -5 -11 -10 -16
-10 -6 0 -7 5 -3 12 4 6 3 8 -4 4 -6 -3 -15 2 -21 11 -6 10 -11 14 -11 10 0
-4 7 -18 16 -31 11 -18 12 -26 3 -32 -7 -4 -9 -3 -6 3 4 6 0 16 -8 23 -12 10
-15 9 -15 -4 0 -9 -4 -16 -9 -16 -5 0 -7 10 -4 23 3 16 2 18 -5 9 -5 -8 -22
-12 -38 -10 -17 2 -35 -3 -44 -12 -8 -9 -11 -11 -7 -4 4 7 4 15 -2 18 -5 3
-11 2 -13 -3 -1 -5 -10 -11 -18 -13 -8 -2 -18 -7 -21 -11 -3 -5 -9 -2 -12 6
-4 10 1 14 15 13 12 0 23 6 25 14 3 9 1 11 -4 5 -4 -6 -16 -11 -25 -12 -44 -2
-49 -4 -42 -15 4 -7 3 -8 -5 -4 -9 6 -9 11 0 22 10 12 9 13 -5 8 -9 -3 -16 -9
-16 -13 0 -10 -56 -8 -66 2 -18 18 -25 5 -8 -15 19 -23 19 -23 -2 -5 -11 9
-23 16 -25 15 -2 -2 -1 1 3 6 10 12 -10 36 -29 36 -10 0 -13 -6 -8 -17 11 -29
11 -35 -3 -38 -7 -2 -8 -1 -3 1 7 4 5 14 -4 28 -8 12 -12 26 -8 30 5 4 1 6 -7
4 -9 -2 -16 6 -18 21 -2 15 0 21 7 17 7 -5 8 -1 4 10 -5 13 -3 15 7 9 9 -5 11
-4 6 3 -10 16 -14 15 -25 -6z m74 -82 c3 -5 2 -10 -4 -10 -5 0 -13 5 -16 10
-3 6 -2 10 4 10 5 0 13 -4 16 -10z m-58 -32 c-3 -7 -5 -2 -5 12 0 14 2 19 5
13 2 -7 2 -19 0 -25z m467 7 c-4 -8 -11 -15 -16 -15 -6 0 -5 6 2 15 7 8 14 15
16 15 2 0 1 -7 -2 -15z"/>
<path d="M4913 6865 c0 -8 4 -12 9 -9 5 3 6 10 3 15 -9 13 -12 11 -12 -6z"/>
<path d="M2464 6850 c0 -10 2 -17 5 -15 2 3 11 -1 19 -8 11 -9 11 -4 -2 16
-22 32 -22 32 -22 7z"/>
<path d="M2504 6825 c-1 -14 2 -23 6 -20 4 3 14 -3 21 -13 13 -15 12 -16 -3
-3 -21 15 -24 2 -5 -19 10 -12 9 -12 -5 -2 -11 9 -18 10 -23 2 -3 -5 0 -10 7
-10 7 0 1 -8 -14 -18 -21 -14 -25 -21 -16 -30 9 -9 4 -9 -22 -2 -27 8 -36 6
-46 -8 -7 -9 -14 -23 -14 -29 0 -7 -4 -13 -9 -13 -11 0 -9 19 4 40 7 13 6 13
-7 2 -17 -14 -18 -28 -4 -51 7 -10 6 -12 -4 -6 -10 6 -12 3 -7 -14 4 -18 3
-20 -8 -11 -8 6 -12 17 -9 24 3 7 -2 13 -10 13 -8 0 -12 -6 -8 -15 4 -11 1
-13 -9 -8 -8 4 -5 -1 6 -11 20 -18 20 -18 -12 -51 -18 -18 -33 -28 -33 -21 0
6 -7 9 -15 6 -8 -4 -17 -2 -20 3 -3 4 1 11 7 13 9 4 10 6 1 6 -23 2 -23 -18
-1 -33 26 -19 17 -21 -15 -5 -21 12 -21 11 -4 -8 19 -22 22 -33 6 -33 -5 0 -8
4 -5 8 2 4 -4 14 -15 21 -19 11 -20 10 -11 -6 7 -11 7 -24 0 -36 -9 -18 -10
-18 -23 0 -8 10 -15 14 -15 9 0 -5 -6 -4 -13 2 -9 8 -12 4 -12 -18 -1 -16 3
-26 7 -24 5 3 6 9 3 14 -3 4 1 10 8 13 9 3 13 -2 12 -16 -1 -12 -6 -22 -11
-22 -5 0 -15 -4 -21 -8 -7 -5 -13 -5 -13 0 0 11 -20 -19 -20 -31 0 -5 8 -2 18
5 15 12 16 12 5 -2 -7 -9 -9 -20 -5 -25 4 -4 -1 -2 -10 5 -18 14 -24 6 -18
-24 1 -5 -4 -5 -11 2 -13 13 -42 6 -33 -8 3 -5 -1 -6 -9 -3 -10 3 -14 -2 -13
-18 1 -13 7 -22 15 -20 7 1 10 -2 6 -8 -9 -15 -37 9 -31 26 3 7 0 16 -6 20 -7
5 -9 -3 -6 -24 4 -28 3 -30 -20 -21 -18 7 -23 6 -19 -3 2 -7 10 -12 16 -10 7
1 10 -2 6 -8 -5 -8 -12 -7 -23 2 -13 11 -15 11 -10 -3 4 -9 1 -16 -7 -16 -10
0 -11 5 -4 19 9 16 7 18 -15 12 -18 -4 -27 -1 -34 13 -11 21 -10 52 3 73 7 13
6 13 -7 2 -9 -8 -14 -20 -11 -28 3 -8 1 -14 -5 -14 -5 0 -12 7 -16 15 -3 8
-11 15 -18 15 -8 0 -9 -3 -3 -8 18 -13 85 -100 85 -110 0 -5 7 -15 15 -22 13
-11 15 -10 9 6 -4 15 -4 16 4 5 6 -8 8 -20 5 -27 -7 -18 244 -263 293 -285 22
-10 50 -16 63 -12 21 5 74 -13 154 -53 16 -8 35 -14 43 -14 8 0 25 -6 37 -14
31 -21 194 -41 211 -27 7 6 34 14 60 17 38 6 53 14 81 47 34 39 35 39 67 26
18 -7 55 -34 82 -59 l50 -45 -41 55 c-58 78 -71 109 -71 161 1 59 -48 174
-133 309 -133 212 -240 370 -251 370 -6 0 -8 3 -5 6 11 11 -34 66 -50 60 -8
-4 -11 -1 -7 5 6 10 -25 79 -36 79 -3 0 -6 -11 -6 -25z m-34 -142 c3 -3 -4 -3
-15 -1 -11 1 -19 -2 -18 -7 1 -6 -8 -12 -20 -12 -20 -2 -20 -1 -4 8 9 6 17 15
17 21 0 6 -7 5 -17 -3 -16 -13 -17 -12 -4 3 10 14 17 15 35 6 11 -6 23 -13 26
-15z m-247 -218 c-3 -9 -8 -14 -10 -11 -3 3 -2 9 2 15 9 16 15 13 8 -4z"/>
<path d="M4520 6830 c-12 -7 -10 -9 7 -7 12 0 19 5 17 9 -6 10 -6 10 -24 -2z"/>
<path d="M4565 6830 c-3 -5 -2 -10 4 -10 5 0 13 5 16 10 3 6 2 10 -4 10 -5 0
-13 -4 -16 -10z"/>
<path d="M4645 6830 c-4 -6 3 -10 14 -10 25 0 27 6 6 13 -8 4 -17 2 -20 -3z"/>
<path d="M4710 6830 c0 -5 5 -10 10 -10 6 0 10 5 10 10 0 6 -4 10 -10 10 -5 0
-10 -4 -10 -10z"/>
<path d="M4768 6823 c7 -3 16 -2 19 1 4 3 -2 6 -13 5 -11 0 -14 -3 -6 -6z"/>
<path d="M4808 6823 c6 -2 18 -2 25 0 6 3 1 5 -13 5 -14 0 -19 -2 -12 -5z"/>
<path d="M2455 6810 c-3 -6 1 -13 10 -16 15 -6 15 -8 0 -24 -11 -12 -13 -20
-6 -25 15 -9 31 3 25 19 -3 8 0 17 6 21 8 5 8 11 -1 21 -14 17 -25 18 -34 4z"/>
<path d="M4226 6808 c3 -4 9 -8 15 -8 5 0 9 4 9 8 0 5 -7 9 -15 9 -8 0 -12 -4
-9 -9z"/>
<path d="M4260 6815 c0 -7 30 -13 34 -7 3 4 -4 9 -15 9 -10 1 -19 0 -19 -2z"/>
<path d="M4206 6795 c4 -8 11 -15 16 -15 6 0 5 6 -2 15 -7 8 -14 15 -16 15 -2
0 -1 -7 2 -15z"/>
<path d="M4340 6795 c-7 -9 -8 -15 -2 -15 5 0 12 7 16 15 3 8 4 15 2 15 -2 0
-9 -7 -16 -15z"/>
<path d="M4410 6790 c0 -5 5 -10 10 -10 6 0 10 5 10 10 0 6 -4 10 -10 10 -5 0
-10 -4 -10 -10z"/>
<path d="M4636 6785 c4 -8 8 -15 10 -15 2 0 4 7 4 15 0 8 -4 15 -10 15 -5 0
-7 -7 -4 -15z"/>
<path d="M4700 6791 c0 -6 4 -13 10 -16 6 -3 7 1 4 9 -7 18 -14 21 -14 7z"/>
<path d="M4781 6784 c0 -11 3 -14 6 -6 3 7 2 16 -1 19 -3 4 -6 -2 -5 -13z"/>
<path d="M2431 6774 c0 -11 3 -14 6 -6 3 7 2 16 -1 19 -3 4 -6 -2 -5 -13z"/>
<path d="M4240 6774 c-9 -10 -9 -14 -1 -14 6 0 11 4 11 10 0 5 7 7 15 4 8 -4
15 -4 15 -1 0 13 -30 14 -40 1z"/>
<path d="M4676 6782 c-2 -4 -1 -14 4 -22 7 -11 9 -9 7 8 -1 24 -3 26 -11 14z"/>
<path d="M4756 6765 c4 -8 8 -15 10 -15 2 0 4 7 4 15 0 8 -4 15 -10 15 -5 0
-7 -7 -4 -15z"/>
<path d="M2433 6735 c0 -8 4 -15 9 -15 4 0 8 4 8 9 0 6 -4 12 -8 15 -5 3 -9
-1 -9 -9z"/>
<path d="M2349 6703 c-13 -16 -12 -17 4 -4 9 7 17 15 17 17 0 8 -8 3 -21 -13z"/>
<path d="M2246 6621 c-3 -5 2 -15 12 -22 15 -12 16 -12 5 2 -7 9 -10 19 -6 22
3 4 4 7 0 7 -3 0 -8 -4 -11 -9z"/>
<path d="M2295 6614 c9 -9 13 -19 10 -22 -3 -4 -11 0 -16 8 -8 11 -9 9 -4 -9
5 -17 4 -22 -5 -16 -9 6 -11 4 -5 -4 5 -9 13 -7 31 10 24 23 32 35 15 25 -5
-3 -11 1 -15 9 -3 8 -10 15 -16 15 -6 0 -4 -7 5 -16z"/>
<path d="M4100 6605 c0 -8 4 -15 10 -15 5 0 7 7 4 15 -4 8 -8 15 -10 15 -2 0
-4 -7 -4 -15z"/>
<path d="M2176 6530 c6 -8 13 -22 16 -30 3 -9 7 -10 11 -3 4 6 -3 19 -16 29
-12 11 -17 12 -11 4z"/>
<path d="M6354 6517 c-18 -10 -20 -14 -8 -24 17 -17 32 -17 16 -1 -10 10 -7
15 10 25 13 7 19 12 13 12 -5 0 -20 -5 -31 -12z"/>
<path d="M6293 6483 c-3 -10 -8 -22 -11 -28 -3 -5 -2 -7 3 -3 4 4 15 2 24 -5
14 -11 14 -10 2 5 -7 10 -11 25 -7 33 3 8 3 15 0 15 -2 0 -7 -8 -11 -17z"/>
<path d="M2100 6460 c0 -11 -6 -20 -12 -20 -9 0 -8 -4 2 -10 13 -9 13 -10 0
-11 -8 -1 -18 -1 -23 0 -4 1 -2 -8 5 -19 11 -17 14 -18 21 -4 9 16 15 38 16
63 1 11 5 10 17 -5 14 -18 15 -18 4 4 -13 27 -30 29 -30 2z"/>
<path d="M6230 6457 c-14 -13 -60 -43 -103 -67 -48 -27 -93 -63 -118 -93 -23
-27 -71 -68 -108 -93 -122 -81 -250 -291 -252 -415 -1 -30 -4 -65 -8 -79 -10
-37 20 -137 62 -206 20 -33 37 -65 37 -73 0 -8 6 -11 16 -7 58 22 106 28 150
17 76 -19 192 10 454 114 188 75 302 127 319 148 9 11 10 17 2 17 -6 0 -11 -4
-11 -9 0 -5 -7 -11 -15 -15 -12 -4 -13 -2 -2 14 6 11 17 20 24 20 6 0 14 4 17
9 4 5 -4 7 -16 3 -16 -4 -19 -2 -13 8 5 8 4 11 -3 6 -6 -3 -13 -2 -17 4 -3 5
-11 10 -16 10 -6 0 -7 -5 -3 -12 4 -7 3 -8 -4 -4 -7 4 -12 1 -12 -6 0 -10 -3
-9 -10 2 -5 9 -5 19 2 27 6 8 7 17 3 21 -4 4 -10 1 -12 -5 -3 -7 -9 -13 -15
-13 -6 0 -3 10 8 21 19 22 19 22 -2 11 -19 -10 -21 -9 -20 11 1 12 -4 30 -12
40 -9 9 -12 17 -7 17 4 0 2 7 -5 15 -7 8 -15 13 -19 11 -3 -2 -11 2 -18 9 -10
10 -9 14 2 19 8 3 15 13 15 21 0 10 5 13 13 9 6 -4 9 -3 4 1 -4 5 -18 10 -30
11 -12 2 -16 0 -9 -2 6 -3 12 -10 12 -15 0 -6 -11 -2 -24 8 -14 11 -23 27 -21
40 2 23 -19 38 -37 26 -7 -3 -8 -1 -4 6 4 7 17 9 29 6 19 -5 18 -3 -6 16 -22
17 -25 24 -16 35 6 8 9 15 5 15 -3 1 -9 2 -13 3 -19 3 -53 35 -45 40 6 3 12 3
15 -1 2 -5 2 -3 1 4 -3 14 20 35 29 26 4 -3 7 -1 7 6 0 7 -6 11 -14 8 -7 -3
-19 0 -25 6 -8 8 -14 8 -23 -2 -11 -10 -10 -11 3 -6 10 4 20 2 23 -3 6 -9 -7
-18 -29 -21 -13 -1 -14 19 -3 42 5 10 14 14 20 11 7 -5 8 -2 4 5 -6 9 -13 8
-27 -5 -11 -9 -22 -14 -26 -11 -3 4 -1 7 5 7 16 0 15 17 0 23 -7 2 -5 3 4 2
10 -2 21 1 24 6 5 8 -17 14 -39 10 -5 -1 -6 3 -3 8 4 5 0 12 -6 14 -10 4 -10
6 0 6 6 1 12 6 12 11 0 6 -8 10 -17 8 -12 -2 -18 4 -19 17 -1 11 -3 22 -4 25
-7 21 -7 40 1 40 6 0 7 5 4 10 -3 6 -2 10 4 10 6 0 7 8 4 17 -4 11 -8 12 -11
5 -2 -7 -8 -12 -13 -12 -6 0 -7 5 -4 10 3 6 -1 10 -9 10 -20 0 -21 -14 -2 -29
16 -14 15 -43 -2 -49 -16 -5 -15 11 0 26 8 8 8 12 1 12 -6 0 -13 7 -17 15 -7
19 3 47 15 39 5 -3 6 2 3 10 -8 20 -5 20 -34 -7z m318 -622 c-3 -3 -9 2 -12
12 -6 14 -5 15 5 6 7 -7 10 -15 7 -18z m78 -140 c-3 -23 -12 -26 -13 -5 -1 11
2 20 7 20 4 0 7 -7 6 -15z"/>
<path d="M2040 6459 c0 -5 -4 -7 -10 -4 -5 3 -10 4 -10 1 0 -3 9 -10 19 -15
16 -9 18 -8 14 9 -6 21 -13 27 -13 9z"/>
<path d="M2026 6384 c-11 -8 -16 -14 -10 -14 13 0 39 18 34 24 -3 2 -14 -2
-24 -10z"/>
<path d="M6310 6380 c-9 -6 -10 -10 -3 -10 6 0 15 5 18 10 8 12 4 12 -15 0z"/>
<path d="M6309 6353 c0 -4 -2 -16 -4 -26 -2 -9 1 -15 6 -11 5 3 7 9 4 14 -3 4
0 10 7 12 9 3 9 6 0 12 -7 4 -12 4 -13 -1z"/>
<path d="M1963 6343 c-7 -2 -13 -9 -13 -15 0 -6 7 -5 16 3 13 10 17 10 26 -2
8 -12 9 -12 6 0 -5 17 -17 22 -35 14z"/>
<path d="M6334 6305 c4 -36 12 -40 12 -5 0 17 -3 30 -7 30 -4 0 -6 -11 -5 -25z"/>
<path d="M6430 6159 c0 -5 5 -7 10 -4 6 3 10 8 10 11 0 2 -4 4 -10 4 -5 0 -10
-5 -10 -11z"/>
<path d="M6405 6130 c3 -5 8 -10 11 -10 2 0 4 5 4 10 0 6 -5 10 -11 10 -5 0
-7 -4 -4 -10z"/>
<path d="M6439 6127 c11 -14 11 -20 0 -34 -7 -10 -9 -15 -5 -11 12 10 47 -32
39 -46 -3 -6 -3 -8 1 -4 5 4 19 -5 32 -19 13 -14 24 -21 24 -14 0 6 -7 14 -16
18 -8 3 -13 12 -10 19 3 7 1 16 -5 19 -5 4 -7 11 -4 16 3 5 0 6 -8 3 -17 -6
-31 12 -32 40 0 11 -7 21 -15 24 -13 5 -13 3 -1 -11z"/>
<path d="M6470 6100 c0 -5 5 -10 11 -10 5 0 7 5 4 10 -3 6 -8 10 -11 10 -2 0
-4 -4 -4 -10z"/>
<path d="M6470 6013 c0 -17 16 -31 27 -25 9 6 6 11 -7 20 -11 7 -20 9 -20 5z"/>
<path d="M6540 5950 c-10 -6 -11 -10 -2 -10 6 0 12 -4 12 -9 0 -5 -10 -7 -22
-4 -13 3 -21 4 -18 2 3 -2 15 -13 28 -24 23 -19 23 -19 17 1 -7 19 -6 19 9 0
20 -25 21 -8 1 18 -8 10 -12 23 -9 27 7 11 3 11 -16 -1z"/>
<path d="M6585 5880 c-3 -6 1 -7 9 -4 18 7 21 14 7 14 -6 0 -13 -4 -16 -10z"/>
<path d="M6562 5863 c9 -10 13 -25 11 -33 -4 -12 -3 -13 5 -1 6 8 16 10 23 6
8 -4 2 4 -13 19 -30 29 -49 36 -26 9z"/>
<path d="M6614 5778 c-19 -23 -19 -23 2 -5 11 9 24 14 29 10 4 -5 5 -2 1 5 -9
16 -10 16 -32 -10z"/>
<path d="M4160 5620 c-8 -5 -10 -10 -5 -10 6 0 17 5 25 10 8 5 11 10 5 10 -5
0 -17 -5 -25 -10z"/>
<path d="M3963 5559 c-18 -5 -33 -12 -33 -15 0 -9 53 5 65 17 10 10 11 10 -32
-2z"/>
<path d="M3841 5526 c2 -2 20 -6 39 -10 25 -4 31 -3 20 4 -14 9 -69 15 -59 6z"/>
<path d="M3950 5520 c-13 -8 -13 -10 2 -10 9 0 20 5 23 10 8 13 -5 13 -25 0z"/>
<path d="M3998 5523 c7 -3 16 -2 19 1 4 3 -2 6 -13 5 -11 0 -14 -3 -6 -6z"/>
<path d="M4230 5509 c0 -5 5 -7 10 -4 6 3 10 8 10 11 0 2 -4 4 -10 4 -5 0 -10
-5 -10 -11z"/>
<path d="M3728 5503 c7 -3 16 -2 19 1 4 3 -2 6 -13 5 -11 0 -14 -3 -6 -6z"/>
<path d="M4292 5498 c2 -7 -5 -12 -16 -11 -13 1 -15 -2 -7 -10 8 -8 15 -7 27
5 11 11 13 18 5 23 -7 4 -10 1 -9 -7z"/>
<path d="M3935 5490 c3 -5 8 -10 11 -10 2 0 4 5 4 10 0 6 -5 10 -11 10 -5 0
-7 -4 -4 -10z"/>
<path d="M4010 5490 c0 -5 5 -10 11 -10 5 0 7 5 4 10 -3 6 -8 10 -11 10 -2 0
-4 -4 -4 -10z"/>
<path d="M4085 5490 c-3 -6 1 -7 9 -4 18 7 21 14 7 14 -6 0 -13 -4 -16 -10z"/>
<path d="M3707 5483 c-4 -3 -7 -11 -7 -17 0 -6 5 -4 10 4 9 13 11 13 19 1 5
-8 7 -20 4 -28 -3 -7 0 -13 5 -13 6 0 9 9 7 20 -7 36 -22 49 -38 33z"/>
<path d="M3905 5471 c-4 -13 -11 -18 -18 -14 -7 4 -5 -2 3 -12 14 -17 13 -18
-8 -13 -15 4 -22 3 -19 -5 3 -7 10 -11 17 -9 11 3 11 0 0 -12 -7 -9 -18 -16
-24 -16 -6 0 -4 5 4 10 14 9 7 14 -13 11 -5 -1 -6 2 -3 7 3 5 -1 9 -9 9 -8 0
-11 -5 -8 -10 4 -6 0 -8 -10 -4 -9 3 -19 1 -23 -5 -4 -6 -3 -9 2 -6 5 3 18 1
29 -3 18 -9 18 -9 -3 -5 -13 2 -26 -2 -33 -12 -10 -15 -10 -15 -5 1 3 11 0 17
-10 17 -8 0 -13 -4 -9 -9 3 -5 0 -13 -6 -17 -8 -5 -9 -3 -5 5 6 8 2 11 -10 9
-26 -4 -54 -30 -47 -42 3 -6 2 -8 -2 -3 -15 13 -13 46 2 40 7 -3 13 -1 13 4 0
5 -19 9 -42 8 -24 0 -47 5 -51 10 -5 6 -7 3 -3 -7 3 -10 0 -18 -6 -18 -6 0 -8
-3 -5 -6 4 -4 12 -2 20 4 11 9 23 10 57 2 3 0 -3 -7 -14 -15 -10 -8 -15 -19
-10 -26 4 -8 3 -10 -4 -5 -7 4 -12 2 -12 -6 0 -7 -7 -2 -16 10 -8 12 -22 22
-30 22 -8 0 -13 4 -10 8 3 5 -7 8 -22 7 -15 -2 -19 0 -9 2 9 2 15 9 12 14 -4
5 -21 3 -41 -6 -25 -10 -42 -12 -60 -5 -40 15 -42 11 -5 -8 34 -17 55 -45 29
-40 -8 2 -12 -4 -10 -16 3 -18 2 -19 -15 -5 -16 13 -17 12 -5 -3 12 -15 11
-16 -12 -14 -14 1 -29 6 -33 9 -3 4 -11 7 -17 7 -6 0 -3 -7 7 -15 11 -7 26
-11 35 -8 13 4 14 3 3 -5 -9 -7 -10 -12 -2 -16 6 -4 11 -2 11 4 0 6 4 9 10 5
5 -3 16 7 25 22 9 15 14 20 11 11 -3 -9 0 -19 7 -22 7 -2 4 -5 -5 -5 -10 -1
-18 -5 -18 -11 0 -5 -7 -10 -16 -10 -9 0 -14 -6 -11 -13 3 -8 -1 -14 -8 -14
-7 0 -11 6 -8 14 4 9 0 11 -11 7 -12 -5 -13 -11 -5 -27 9 -20 9 -20 -4 -5 -8
10 -18 14 -23 10 -4 -4 -2 1 5 11 17 21 1 22 -25 1 -10 -8 -14 -13 -9 -10 6 2
12 -5 12 -17 2 -20 1 -20 -8 -4 -15 26 -32 21 -19 -5 10 -21 10 -21 -3 -6 -10
13 -16 15 -25 6 -7 -7 -12 -8 -12 -2 0 5 9 15 19 21 22 14 25 57 4 49 -7 -3
-15 -1 -18 4 -4 6 -1 10 4 10 6 0 11 7 11 15 0 8 5 15 11 15 5 0 7 -5 4 -10
-4 -6 -1 -9 7 -8 7 2 12 -2 11 -9 -1 -6 12 -16 29 -22 39 -14 50 -6 14 10 -16
8 -25 18 -22 26 3 8 1 11 -5 8 -5 -4 -17 -1 -26 6 -13 11 -18 10 -34 -10 -14
-16 -16 -27 -9 -36 5 -6 6 -16 2 -20 -4 -5 1 -5 11 -2 25 9 21 -7 -5 -18 -13
-6 -23 -19 -23 -30 0 -11 -4 -26 -9 -33 -7 -11 -4 -12 12 -3 15 8 23 8 28 -1
4 -6 3 -8 -4 -4 -6 3 -13 2 -17 -4 -3 -5 -16 -8 -28 -6 -12 3 -25 5 -28 5 -12
2 -5 28 7 28 7 0 10 -7 7 -16 -2 -9 1 -7 8 4 7 11 14 27 15 35 1 8 5 26 8 40
6 25 6 25 -4 2 -5 -13 -15 -20 -21 -16 -8 4 -9 0 -4 -15 4 -12 2 -21 -4 -21
-6 0 -11 6 -11 13 0 6 -5 4 -11 -6 -6 -11 -9 -32 -5 -48 4 -23 -2 -37 -34 -74
-36 -41 -48 -75 -41 -117 0 -4 -4 -20 -10 -35 -6 -15 -15 -50 -20 -76 -5 -27
-18 -60 -29 -75 -16 -20 -20 -38 -19 -86 1 -34 -6 -96 -16 -139 -14 -58 -16
-82 -8 -99 12 -26 33 -174 33 -235 0 -25 11 -62 30 -99 17 -32 42 -86 56 -119
15 -33 39 -78 54 -100 34 -50 103 -187 120 -238 7 -21 25 -54 42 -73 16 -18
33 -46 37 -61 10 -39 64 -73 114 -73 30 0 59 -11 108 -40 37 -22 79 -40 92
-40 14 0 42 -7 63 -17 47 -19 149 -22 449 -10 226 10 268 16 331 53 22 13 52
24 65 24 36 0 226 98 249 128 11 15 36 47 55 72 19 25 43 64 54 88 11 23 41
74 66 111 54 81 61 119 35 205 -10 34 -18 81 -19 106 -2 82 -23 161 -55 206
-203 285 -207 290 -397 383 -78 39 -149 77 -158 85 -38 32 -145 60 -236 60
-87 1 -94 -1 -190 -46 -55 -25 -115 -52 -132 -58 -76 -29 -166 -176 -165 -270
1 -97 57 -211 115 -235 45 -18 131 -29 123 -16 -9 13 78 107 119 129 21 11 68
18 155 22 69 4 131 8 139 11 7 2 24 -13 37 -36 54 -89 59 -106 59 -210 -1
-171 -45 -245 -188 -322 l-72 -38 -145 -4 c-168 -4 -261 10 -317 46 -28 18
-58 57 -109 141 -101 167 -133 254 -149 402 -3 35 -11 73 -17 83 -7 14 -5 35
10 81 11 33 23 86 27 116 3 30 15 68 25 85 24 39 80 82 116 91 16 4 44 20 62
35 44 39 70 51 206 98 240 83 446 115 589 92 37 -7 114 -32 174 -59 216 -95
295 -206 452 -633 17 -47 31 -91 31 -97 0 -7 19 -67 41 -135 37 -108 42 -132
41 -212 0 -70 -6 -104 -25 -155 -35 -93 -161 -340 -192 -375 -14 -16 -44 -51
-66 -78 -53 -62 -159 -141 -217 -163 -26 -10 -54 -24 -64 -31 -9 -8 -22 -16
-30 -17 -7 -2 -22 -6 -33 -10 -11 -5 -36 -14 -55 -21 -20 -7 -57 -16 -83 -20
-31 -5 -48 -13 -52 -25 -15 -48 -300 -46 -635 3 -128 19 -221 44 -300 79 -298
133 -405 222 -497 410 -58 118 -123 284 -143 368 -22 86 -19 293 6 530 7 68
30 134 84 245 59 121 92 208 77 198 -7 -3 -4 2 5 13 10 11 19 31 20 45 2 13 6
26 9 29 10 9 60 142 55 148 -3 2 -10 -7 -16 -22 -5 -15 -14 -25 -19 -21 -5 3
-12 1 -16 -5 -3 -5 -1 -10 4 -10 15 0 14 -27 -1 -36 -7 -5 -9 -2 -5 9 3 9 0
18 -9 21 -9 3 -12 1 -9 -4 3 -6 1 -10 -6 -10 -7 0 -5 -8 7 -22 10 -12 13 -18
5 -13 -11 6 -13 4 -8 -8 3 -9 3 -16 -1 -16 -19 3 -23 -2 -13 -14 8 -10 7 -14
-4 -14 -8 0 -12 4 -9 9 3 4 0 8 -5 8 -10 0 -15 -14 -12 -32 0 -5 -3 -8 -9 -8
-5 0 -7 -8 -4 -17 5 -17 5 -17 -6 0 -6 9 -16 14 -22 11 -7 -4 -8 -2 -4 5 4 6
11 9 16 6 4 -3 11 2 14 11 3 8 2 12 -4 9 -6 -3 -10 -2 -10 3 0 6 -7 13 -16 16
-14 5 -15 4 -4 -9 9 -11 10 -19 2 -27 -13 -13 -4 -40 11 -31 5 3 7 1 3 -5 -3
-5 -3 -12 1 -15 5 -2 2 -2 -6 0 -9 2 -11 -3 -7 -14 5 -16 5 -16 -8 0 -11 15
-19 16 -33 8 -16 -9 -16 -10 -1 -11 9 0 20 -5 24 -12 5 -8 2 -9 -9 -5 -10 3
-17 2 -17 -3 0 -6 -4 -10 -10 -10 -5 0 -9 5 -7 11 1 6 -6 13 -16 14 -15 3 -16
1 -6 -11 11 -13 6 -18 -14 -15 -5 1 -6 -3 -2 -9 8 -12 -13 -52 -24 -46 -5 3
-8 -4 -7 -16 0 -12 -5 -23 -13 -26 -9 -3 -11 0 -6 8 6 9 4 11 -5 5 -10 -6 -7
-12 11 -26 l24 -19 -28 0 c-19 0 -26 4 -21 12 5 7 3 8 -5 3 -15 -8 -4 -22 22
-27 10 -1 17 -7 17 -13 -1 -5 7 -13 17 -17 14 -7 13 -7 -5 -4 -17 3 -22 1 -18
-9 3 -9 0 -12 -10 -8 -7 3 -14 0 -14 -6 0 -6 5 -11 12 -11 6 0 3 -6 -7 -14
-11 -8 -16 -20 -12 -29 4 -10 -4 -28 -18 -46 -14 -16 -25 -37 -24 -47 0 -18 1
-17 10 1 8 19 9 19 6 1 -2 -20 -57 -36 -57 -16 0 5 -5 10 -12 10 -6 0 -4 -8 6
-19 10 -11 24 -17 31 -15 7 3 15 -2 19 -11 4 -11 2 -14 -6 -9 -17 11 -57 14
-62 5 -3 -4 0 -13 6 -21 8 -12 9 -11 4 3 -4 12 -2 17 6 14 7 -2 12 -13 10 -23
-2 -18 -2 -18 13 0 8 11 15 15 15 9 0 -6 -7 -16 -15 -23 -8 -7 -13 -23 -11
-36 3 -13 0 -26 -5 -30 -6 -3 -5 -12 3 -22 11 -13 11 -14 -1 -7 -11 6 -13 4
-8 -8 4 -12 2 -14 -11 -10 -14 5 -15 4 -6 -8 12 -15 13 -62 1 -66 -16 -6 -19
-2 -8 10 6 8 8 17 4 20 -3 4 -12 -5 -20 -20 -10 -19 -11 -29 -3 -37 8 -8 9 -5
4 9 -7 17 -6 18 8 5 11 -11 12 -17 4 -22 -18 -12 -26 -9 -36 15 -7 18 -9 18
-9 4 -1 -10 -5 -16 -9 -13 -4 2 -9 -4 -9 -15 -2 -16 1 -17 18 -9 14 8 19 7 19
-1 0 -6 7 -9 15 -5 8 3 14 2 14 -2 -3 -20 3 -23 19 -11 15 13 16 12 4 -3 -13
-16 -34 -15 -58 3 -6 5 -11 3 -11 -6 0 -7 3 -13 6 -12 12 2 51 -15 51 -22 0
-5 -7 -14 -15 -21 -9 -7 -14 -19 -11 -26 3 -7 1 -16 -5 -19 -13 -9 -1 -25 15
-19 9 3 13 -5 14 -26 0 -17 -3 -28 -8 -25 -5 3 -7 15 -5 26 4 17 2 19 -10 9
-17 -14 -17 -13 -19 33 -1 21 5 37 16 45 23 17 14 32 -17 30 -13 -1 -21 -6
-19 -10 3 -4 12 -5 22 -2 15 5 15 4 2 -8 -20 -18 -24 -94 -5 -101 7 -3 19 -15
25 -26 9 -17 8 -20 -5 -15 -11 5 -13 2 -9 -9 3 -10 12 -13 22 -10 10 4 6 -3
-8 -15 -14 -12 -19 -21 -12 -22 7 0 11 -4 7 -9 -3 -6 3 -15 12 -21 16 -10 16
-11 -2 -5 -11 4 -27 8 -35 8 -8 0 -18 5 -23 11 -4 6 -5 0 -4 -14 2 -14 10 -25
18 -25 8 -1 13 -7 11 -15 -3 -11 2 -10 16 4 20 17 21 17 32 -3 6 -12 8 -25 5
-30 -8 -14 6 -42 18 -34 6 3 7 1 3 -5 -4 -7 -1 -12 6 -12 10 0 10 -2 1 -8 -14
-9 -10 -48 5 -45 6 2 9 -4 6 -11 -3 -9 -12 -12 -22 -8 -14 5 -15 3 -5 -10 7
-8 10 -18 6 -21 -3 -4 -1 -7 5 -7 7 0 12 -10 12 -22 l0 -23 -21 25 -21 25 15
-26 c12 -20 13 -29 4 -38 -9 -9 -8 -11 5 -6 15 6 30 28 32 47 1 3 4 9 8 12 5
3 6 3 3 -1 -3 -3 0 -12 7 -20 6 -8 7 -13 2 -12 -20 3 -26 -2 -16 -13 6 -7 11
-17 11 -23 1 -5 6 -11 11 -11 21 -3 22 -4 10 -19 -9 -11 -9 -15 -1 -15 7 0 9
-4 6 -10 -3 -5 -1 -10 5 -10 7 0 6 -5 -2 -14 -7 -8 -17 -11 -23 -8 -5 3 -2 -3
7 -14 13 -15 15 -23 6 -32 -8 -8 -5 -14 15 -21 15 -6 27 -15 27 -21 0 -7 -7
-7 -22 0 -21 10 -21 10 -6 -3 10 -8 15 -17 12 -20 -3 -3 -3 -11 1 -17 5 -8 10
-8 21 0 11 10 13 6 9 -19 -2 -18 2 -35 11 -42 7 -6 11 -16 7 -22 -3 -6 -1 -7
5 -3 11 7 6 36 -7 36 -4 0 -7 10 -8 23 -2 19 0 20 10 6 7 -9 18 -14 25 -12 6
3 12 0 12 -7 0 -6 -4 -8 -10 -5 -5 3 -10 -1 -10 -9 0 -11 6 -13 18 -9 16 7 16
6 0 -11 -10 -9 -18 -20 -18 -23 0 -4 3 -3 7 0 3 4 13 1 22 -6 14 -10 14 -10 3
4 -20 27 12 32 35 6 l18 -22 -24 20 c-21 17 -23 18 -18 3 3 -10 2 -20 -3 -23
-12 -8 -12 -26 -1 -44 8 -13 12 -13 27 0 19 15 19 17 -1 -33 -8 -20 19 -26 30
-8 4 6 11 8 16 5 5 -3 7 0 6 7 -2 7 -2 10 0 5 3 -4 8 -5 13 -2 5 3 7 -3 5 -12
-1 -11 -9 -17 -20 -15 -10 2 -14 -1 -10 -7 3 -6 13 -11 21 -11 8 0 14 -7 14
-15 0 -20 30 -32 40 -15 5 8 9 9 14 1 4 -6 2 -11 -4 -11 -6 0 -8 -5 -5 -10 4
-7 12 -7 18 -2 19 13 40 8 43 -10 1 -10 -2 -20 -7 -24 -5 -3 -13 -13 -18 -23
-8 -14 -5 -17 12 -16 12 0 27 3 32 7 6 4 17 2 25 -4 13 -8 13 -9 0 -5 -8 2
-23 -7 -34 -20 l-19 -25 29 18 c15 11 25 13 21 7 -5 -7 -4 -13 2 -13 5 0 11 4
13 8 2 4 14 2 28 -6 l25 -14 -29 7 c-27 6 -28 5 -15 -11 13 -17 13 -17 -13 0
-20 13 -28 14 -34 5 -4 -8 -3 -9 4 -5 7 4 12 2 12 -4 0 -6 4 -9 9 -5 6 3 14
-2 19 -11 8 -15 10 -15 15 0 7 17 37 22 37 6 0 -5 5 -10 11 -10 5 0 8 4 5 8
-3 5 1 9 9 9 12 0 12 -3 2 -16 -10 -12 -9 -14 5 -8 12 4 15 2 12 -8 -4 -10 0
-13 16 -10 13 2 19 1 16 -3 -4 -4 -12 -8 -17 -8 -5 -1 -12 -2 -15 -3 -3 0 4
-10 17 -21 13 -10 18 -19 12 -20 -7 0 -13 -5 -13 -12 0 -6 10 -3 22 8 12 10
18 14 15 7 -7 -12 10 -12 29 -1 6 4 11 1 11 -7 0 -8 -6 -15 -13 -15 -13 0 -28
-29 -19 -38 2 -3 7 2 11 11 3 10 14 14 30 11 13 -2 24 0 24 6 0 6 -4 9 -8 6
-5 -3 -9 1 -9 9 0 8 5 11 11 7 6 -4 13 -7 16 -7 3 0 12 -5 21 -10 15 -9 16
-11 1 -25 -14 -13 -15 -12 -9 3 3 9 2 19 -2 22 -18 11 -18 -22 -1 -45 17 -22
18 -23 17 -5 -1 13 3 19 13 16 8 -2 25 -4 38 -4 19 1 23 -4 20 -26 -1 -14 -6
-31 -10 -36 -4 -6 -3 -17 1 -24 6 -9 11 -10 15 -2 4 6 2 11 -5 11 -8 0 -9 3 0
13 6 8 8 17 4 20 -3 4 1 7 11 7 12 0 15 -6 12 -24 -3 -19 -1 -23 11 -19 10 4
14 2 10 -4 -3 -5 0 -10 7 -10 9 0 12 7 8 16 -5 14 -2 13 14 -1 18 -16 22 -16
35 -2 16 15 49 10 49 -8 0 -6 -8 -4 -17 3 -9 8 -14 9 -10 2 4 -6 2 -13 -5 -16
-7 -2 -5 -3 5 -1 13 2 17 -2 13 -12 -3 -8 -2 -12 3 -9 5 3 11 0 14 -7 2 -7 2
-3 0 9 -3 21 0 22 37 20 43 -2 47 -6 28 -25 -7 -7 -8 -12 -4 -12 5 0 14 7 20
15 6 8 21 17 33 19 16 4 21 0 20 -15 -1 -10 -5 -19 -9 -19 -14 0 -9 -18 6 -23
11 -4 13 -1 10 11 -4 11 3 7 19 -10 l25 -27 18 22 c10 12 12 16 4 10 -20 -18
-35 -16 -20 2 8 9 8 15 2 15 -6 0 -12 -5 -14 -11 -2 -6 -12 -1 -23 12 l-20 22
23 -12 c19 -10 22 -9 22 6 1 17 1 17 11 1 12 -21 40 -23 58 -5 10 10 12 9 9
-3 -2 -11 5 -15 29 -13 18 1 32 -1 32 -5 -3 -22 3 -32 21 -32 11 0 20 4 20 10
0 5 -6 7 -14 4 -8 -3 -17 0 -22 7 -5 9 -2 10 9 6 9 -3 19 -2 23 4 5 8 53 7 74
-1 7 -3 23 -7 38 -8 15 -2 6 -22 -9 -22 -6 0 -7 5 -4 10 3 6 1 10 -4 10 -18 0
-12 -19 9 -30 16 -8 20 -8 18 2 -2 8 5 12 17 11 17 -1 17 1 -5 18 -14 10 -28
19 -31 19 -12 0 -5 27 7 27 7 0 10 -7 6 -16 -5 -14 -3 -14 11 -2 10 7 17 9 17
3 0 -6 -6 -12 -12 -14 -7 -3 -2 -7 11 -11 16 -4 21 -2 17 8 -6 17 23 13 34 -5
4 -7 15 -10 24 -7 9 4 16 2 16 -3 0 -5 -8 -11 -17 -13 -10 -3 -6 -4 9 -4 22 1
25 4 17 19 -7 12 -6 18 1 18 6 0 9 4 5 9 -3 5 -1 12 4 15 5 4 8 -5 7 -18 -2
-16 1 -23 9 -19 7 2 11 14 9 26 -4 19 -3 19 7 -3 11 -23 12 -24 16 -5 3 11 10
25 15 30 7 7 8 3 5 -10 -6 -20 18 -64 28 -53 3 3 -1 13 -10 22 -10 10 -12 16
-5 16 7 0 10 6 7 13 -3 9 7 14 36 16 44 2 60 8 53 20 -3 4 5 8 16 8 20 2 20 1
2 -12 -11 -8 -14 -15 -9 -15 6 0 3 -5 -5 -10 -13 -8 -13 -11 -1 -22 9 -8 11
-9 7 -1 -3 6 -2 14 4 18 5 3 10 1 10 -6 0 -7 3 -9 6 -6 4 4 1 14 -7 23 -12 15
-11 16 9 10 17 -6 23 -4 21 6 -3 28 1 37 18 31 12 -5 14 -3 8 8 -6 11 -5 12 6
2 17 -17 32 -17 23 0 -4 6 -3 9 1 4 5 -4 17 0 26 9 17 16 20 15 36 -3 10 -10
14 -13 9 -6 -5 8 -4 13 3 13 6 0 16 10 21 23 7 17 9 18 9 5 1 -10 6 -18 12
-18 5 0 7 6 3 13 -6 9 -4 9 7 0 7 -7 18 -13 24 -13 5 0 3 5 -5 10 -13 8 -12
10 3 10 9 0 17 -8 18 -17 0 -12 2 -13 6 -5 3 7 -3 22 -13 33 -13 15 -14 18 -3
14 9 -3 23 3 33 14 10 11 25 17 34 14 11 -5 13 -3 7 8 -6 11 -5 11 5 2 10 -9
19 -9 41 3 16 8 32 14 36 13 4 -1 15 -1 23 0 12 1 11 4 -3 12 -14 8 -24 7 -43
-5 -13 -9 -24 -13 -24 -9 0 5 -5 1 -10 -7 -5 -8 -10 -10 -10 -5 0 6 5 17 10
25 7 11 10 11 10 2 0 -7 5 -10 10 -7 6 4 8 11 5 16 -3 5 2 6 11 2 12 -4 15 -3
10 5 -5 9 0 9 19 2 35 -13 40 -13 25 5 -7 8 -17 12 -24 8 -6 -4 -5 1 3 10 7 9
18 14 24 10 7 -4 8 0 3 13 -6 15 -5 16 5 7 9 -9 9 -16 2 -25 -8 -9 -7 -17 5
-28 14 -13 15 -12 9 3 -7 19 8 24 19 6 4 -8 12 -3 20 12 7 13 13 18 14 10 0
-8 3 -11 7 -8 9 10 -28 48 -40 40 -6 -3 -7 -1 -3 5 4 6 14 8 23 5 12 -5 14 -3
8 7 -5 9 -4 11 4 6 6 -4 9 -11 7 -15 -3 -4 1 -8 7 -8 7 0 14 9 14 19 1 10 -3
16 -8 12 -5 -3 -8 0 -7 8 2 7 -3 12 -10 10 -8 -1 -11 2 -7 8 9 15 55 -18 48
-36 -3 -8 0 -14 6 -14 6 0 11 6 11 13 0 6 14 22 31 33 18 13 26 24 20 28 -6 4
-11 2 -11 -4 0 -6 -5 -8 -10 -5 -6 4 -7 11 -4 17 5 7 2 8 -6 3 -9 -6 -11 -4
-6 4 5 7 14 10 21 7 8 -3 19 2 25 9 7 8 17 12 22 9 6 -4 6 0 0 12 -7 14 -6 25
4 39 8 10 14 14 14 8 0 -6 10 -9 23 -8 30 3 29 2 17 25 -6 11 -15 18 -20 15
-6 -3 -7 1 -4 9 3 9 10 16 15 16 6 0 5 10 -1 23 -11 21 -10 21 4 3 9 -11 16
-16 16 -10 0 5 9 -2 19 -15 14 -18 20 -21 26 -11 5 8 4 11 -2 7 -6 -4 -14 0
-17 9 -9 22 -8 24 9 18 9 -4 18 1 22 11 6 17 7 17 20 -1 7 -10 13 -13 13 -7 0
6 -7 16 -15 23 -18 15 -20 35 -3 24 6 -4 8 -3 4 4 -3 5 -1 12 6 14 7 3 8 10 4
17 -6 10 -13 6 -25 -13 -10 -14 -20 -23 -23 -20 -4 3 2 14 13 25 11 11 17 25
12 32 -4 7 5 4 20 -6 35 -23 35 -13 0 20 -16 14 -19 19 -9 12 18 -12 19 -12
13 3 -4 11 -2 17 6 15 7 -1 11 3 10 10 -2 7 4 10 13 6 13 -5 12 -8 -5 -25 -25
-22 -25 -25 -6 -25 8 0 13 2 10 5 -2 2 11 20 30 38 38 37 43 47 20 38 -8 -4
-15 -2 -16 2 0 5 -2 22 -4 39 -3 20 -1 25 5 15 7 -12 12 -12 34 0 14 7 24 15
22 17 -2 3 -14 0 -25 -7 -33 -17 -25 6 9 26 28 17 28 19 13 36 -13 14 -18 16
-26 6 -6 -10 -7 -9 -4 2 2 8 11 14 18 12 8 -1 3 7 -11 18 -18 15 -19 19 -5 12
11 -6 23 -9 27 -9 3 1 10 -2 15 -7 5 -5 2 -6 -5 -1 -19 11 1 -27 24 -46 17
-13 17 -13 0 13 -13 20 -14 27 -4 31 11 4 11 6 0 6 -7 1 -10 6 -6 13 5 7 3 8
-5 4 -9 -6 -11 1 -9 25 3 24 10 35 24 36 18 3 18 2 -1 -6 -11 -6 -14 -10 -6
-10 11 -1 11 -4 1 -18 -7 -10 3 0 23 22 22 26 32 44 26 51 -5 6 -6 14 -2 18 4
4 0 4 -8 1 -10 -4 -16 0 -16 10 0 9 6 14 14 11 7 -3 12 -2 12 2 -3 20 2 33 11
27 6 -3 10 -2 10 4 0 5 -9 9 -19 8 -11 0 -18 -4 -15 -8 2 -4 -3 -12 -11 -19
-8 -7 -12 -16 -9 -21 3 -5 0 -9 -5 -9 -6 0 -11 7 -11 15 0 8 5 15 11 15 5 0 8
4 4 9 -3 5 -1 12 5 16 5 3 10 11 10 16 0 6 -6 7 -12 3 -10 -6 -10 -5 -1 8 7 8
9 19 5 24 -4 4 1 2 11 -6 16 -12 20 -12 27 0 5 8 6 18 4 22 -3 4 -1 8 5 8 5 0
15 -8 20 -17 6 -10 11 -13 11 -6 0 6 -9 18 -20 26 -11 8 -17 17 -12 22 4 5 2
5 -5 1 -6 -3 -10 -16 -8 -28 3 -14 1 -18 -5 -12 -5 5 -11 23 -13 40 -2 16 -6
35 -10 41 -4 7 -3 14 3 18 6 4 8 11 5 16 -3 5 1 6 9 3 19 -7 22 16 4 34 -7 7
-8 12 -2 12 5 0 2 5 -6 11 -12 9 -11 10 8 6 12 -3 22 -1 22 5 0 5 4 7 9 3 10
-5 9 -22 -4 -60 -5 -15 -3 -14 8 4 8 13 13 43 12 67 -1 24 1 41 5 39 4 -2 7 2
7 10 0 11 -4 12 -14 4 -7 -7 -10 -21 -7 -34 4 -18 2 -23 -10 -21 -9 1 -22 8
-29 16 -9 11 -8 11 7 0 18 -14 19 -13 13 2 -3 10 0 32 7 50 8 20 10 41 5 53
-8 21 -10 17 -13 -37 0 -12 -7 -23 -14 -26 -8 -2 -11 4 -8 20 2 12 -2 29 -8
37 -7 10 -7 13 0 8 9 -5 44 25 44 38 0 3 -12 3 -27 0 -25 -5 -26 -5 -6 4 16 7
21 15 16 27 -4 10 -2 15 3 11 6 -3 11 4 11 16 1 12 -1 17 -5 11 -4 -6 -16 -11
-26 -11 -16 0 -15 4 10 24 24 20 25 24 9 21 -11 -2 -27 -10 -35 -18 -8 -9 -12
-11 -7 -6 11 15 8 28 -5 20 -7 -4 -8 -3 -4 4 4 6 2 20 -3 30 -9 17 -7 19 21
18 26 -1 31 3 34 24 3 16 1 20 -4 12 -7 -10 -12 -8 -26 7 -16 18 -16 20 6 35
12 9 17 16 11 16 -6 0 -16 -7 -23 -15 -7 -8 -16 -12 -21 -9 -5 3 -9 0 -9 -5 0
-6 -5 -11 -11 -11 -5 0 -8 4 -5 9 4 5 3 11 -1 14 -5 2 -2 2 5 1 7 -2 12 7 12
22 0 15 4 23 11 19 6 -4 8 -14 5 -22 -3 -8 -1 -11 4 -8 12 8 12 16 1 34 -8 13
-12 13 -27 0 -16 -13 -17 -12 -11 4 4 10 7 20 7 23 0 2 6 1 14 -2 8 -3 16 3
19 15 6 25 -3 33 -23 20 -10 -6 -11 -9 -2 -9 6 0 12 -4 12 -8 0 -5 -7 -9 -15
-9 -8 0 -15 9 -15 19 0 11 -5 16 -10 13 -7 -4 -7 -12 0 -25 11 -21 -13 -50
-25 -30 -4 6 -1 9 7 8 7 -2 12 2 11 7 -5 29 -9 41 -18 48 -6 5 -3 7 8 3 9 -3
17 0 17 6 0 7 5 6 15 -2 10 -9 15 -9 15 -1 0 6 -5 11 -11 11 -6 0 -9 7 -6 14
4 10 1 13 -8 9 -8 -3 -12 -10 -8 -17 3 -6 3 -8 -2 -4 -4 4 -17 3 -29 -3 -18
-8 -19 -8 -4 3 16 12 15 15 -9 41 -16 16 -27 39 -28 55 0 21 -5 27 -22 27 -12
0 -25 4 -30 9 -4 5 -3 6 4 3 6 -4 13 -2 15 3 2 6 15 13 30 15 20 4 30 0 38
-14 8 -16 6 -21 -8 -25 -21 -7 -23 -39 -4 -58 9 -9 12 -9 12 0 0 6 7 9 15 6
11 -5 13 -10 5 -19 -8 -9 -8 -15 0 -20 5 -3 10 1 10 10 0 10 5 14 13 10 6 -4
1 3 -12 14 -12 12 -27 18 -32 15 -5 -3 -9 4 -9 15 0 19 11 26 33 22 5 -1 -1
12 -13 29 -12 16 -26 30 -32 30 -7 0 -7 5 1 14 9 11 8 15 -6 20 -15 6 -15 8
-3 16 8 6 11 10 6 10 -5 0 -18 -7 -28 -17 -20 -18 -25 -4 -6 15 9 9 9 12 0 12
-7 0 -12 -3 -12 -8 0 -4 -9 -13 -20 -20 -16 -10 -20 -10 -18 0 2 7 -2 12 -8
11 -6 -1 -11 4 -11 12 0 8 4 12 9 9 5 -3 7 6 4 20 -3 14 2 30 10 37 8 6 14 16
14 22 0 5 -10 -3 -22 -18 -19 -24 -22 -25 -30 -10 -9 15 -11 15 -24 -2 -14
-17 -15 -17 -6 2 5 11 7 26 5 33 -3 6 0 12 7 12 6 0 9 -3 7 -7 -3 -5 1 -13 8
-20 14 -13 23 -7 39 27 5 9 2 8 -7 -2 -15 -19 -32 -25 -22 -8 3 6 1 10 -5 10
-6 0 -8 5 -4 12 4 7 3 8 -4 4 -6 -4 -22 -1 -34 6 -13 7 -26 11 -30 10 -3 -1
-12 6 -20 16 -12 15 -11 16 5 3 18 -14 23 -5 9 17 -5 7 -15 10 -24 7 -8 -3
-21 2 -29 12 -13 16 -12 17 4 4 22 -18 33 -9 11 10 -18 14 -38 21 -69 20 -15
0 -16 2 -6 9 8 4 20 6 28 3 9 -4 11 0 7 11 -7 18 -24 21 -42 6 -6 -6 -10 -7
-7 -4 3 4 -1 14 -8 23 -11 14 -10 15 7 1 18 -14 19 -13 13 3 -4 10 -7 20 -7
23 0 2 -6 1 -14 -2 -8 -3 -16 -1 -20 4 -11 18 31 5 52 -16 21 -21 23 -21 42
-5 22 19 26 33 9 33 -5 0 -7 -5 -3 -12 5 -8 2 -9 -12 -4 -10 4 -23 9 -29 10
-5 1 -16 5 -23 9 -7 5 -26 9 -43 9 -24 1 -27 3 -15 10 9 5 20 7 25 4 4 -3 17
1 27 10 18 14 18 15 -3 4 -21 -10 -27 -7 -24 12 0 4 -6 5 -14 2 -8 -4 -12 -10
-9 -15 3 -5 1 -9 -3 -9 -5 0 -14 9 -21 21 -8 12 -21 19 -35 17 -18 -2 -21 1
-19 22 l3 25 -16 -23 -17 -23 -22 30 c-13 17 -26 27 -30 23 -4 -4 -6 0 -4 8 2
9 -5 14 -20 15 -13 0 -28 8 -33 17 -6 11 -18 15 -36 12 -15 -3 -24 -2 -21 2
10 9 69 13 63 4 -3 -4 2 -10 10 -14 9 -3 15 0 15 10 0 9 5 12 12 8 7 -4 8 -3
4 4 -4 6 -13 9 -20 6 -8 -3 -17 0 -21 6 -5 8 -11 8 -22 -1 -12 -11 -13 -8 -8
17 4 23 3 25 -4 9 -5 -11 -10 -14 -10 -7 -1 14 -27 16 -36 3 -3 -5 0 -13 6
-17 8 -4 9 -3 5 4 -4 7 -3 12 3 12 13 0 25 -19 17 -27 -3 -4 -17 0 -31 7 -19
10 -22 16 -14 27 6 7 8 13 4 13 -4 0 -1 8 6 18 13 15 12 16 -3 3 -10 -7 -15
-17 -12 -22 3 -5 1 -9 -5 -9 -5 0 -12 6 -14 13 -3 7 -6 4 -6 -6 -1 -10 -6 -15
-12 -12 -6 4 -8 13 -5 21 7 18 -14 30 -25 13 -5 -8 -3 -17 4 -21 9 -6 9 -8 0
-8 -6 0 -15 5 -18 10 -4 6 -11 8 -16 5 -5 -3 -6 1 -2 10 4 13 1 16 -13 13 -10
-2 -18 -10 -16 -17 1 -7 -2 -10 -8 -6 -8 5 -7 11 1 21 11 14 -1 20 -15 7 -9
-9 -46 -11 -40 -2 7 12 -38 39 -64 39 -16 0 -21 -4 -16 -12 6 -10 5 -10 -7 -1
-11 9 -19 9 -26 2 -18 -18 -35 -1 -23 21 9 16 7 18 -10 15 -13 -3 -20 2 -21
13 0 14 -2 14 -8 -2 -5 -14 -10 -16 -15 -8 -4 7 -5 16 -2 20 3 5 -2 9 -10 9
-9 0 -13 -6 -9 -15 3 -9 0 -12 -9 -9 -7 3 -25 0 -38 -7 -20 -11 -25 -11 -25 0
0 8 11 14 23 14 13 0 25 4 29 9 3 6 -6 8 -21 5 -17 -3 -23 -1 -19 7 6 8 2 8
-13 0 -22 -12 -65 -6 -70 9 -2 6 -10 3 -18 -7 -10 -13 -13 -14 -11 -3 2 8 2
12 0 8 -3 -5 -14 -8 -24 -8 -11 0 -18 4 -14 9 3 5 1 12 -5 16 -9 5 -11 -1 -10
-32 0 -5 8 -8 18 -8 9 0 23 -4 30 -8 6 -5 12 -4 12 1 0 5 10 8 23 7 12 -1 30
-3 40 -4 9 0 17 -6 17 -12 0 -6 -9 -8 -21 -4 -15 5 -19 4 -14 -5 5 -8 0 -7
-14 2 -18 11 -23 11 -30 0 -7 -11 -9 -11 -14 1 -7 18 -40 12 -58 -9 -13 -16
-29 -18 -29 -4 0 6 5 9 11 8 6 -2 13 2 16 8 2 7 -6 10 -22 9 -15 -2 -25 2 -25
10 0 17 -27 27 -36 14 -3 -6 -3 -13 0 -16 3 -4 6 -1 6 6 0 7 5 9 10 6 6 -3 10
-14 10 -23 0 -13 -2 -14 -9 -4 -4 8 -11 13 -15 13 -21 -3 -27 1 -22 15 3 8 2
12 -3 9 -16 -10 -8 -45 11 -45 9 0 20 -5 23 -10 5 -8 11 -7 21 1 8 7 14 7 14
1 0 -14 -28 -23 -36 -11 -3 6 -14 9 -24 6 -23 -6 -42 32 -28 57 5 10 8 20 5
23 -3 2 -8 -5 -12 -16z m391 -67 c2 -11 -1 -12 -10 -4 -10 7 -17 6 -26 -5 -7
-8 -18 -15 -24 -14 -6 0 -6 3 2 6 10 4 10 8 2 19 -9 10 -8 12 9 9 11 -2 23 1
27 6 7 12 17 4 20 -17z m-206 7 c0 -6 -4 -12 -8 -15 -5 -3 -9 1 -9 9 0 8 4 15
9 15 4 0 8 -4 8 -9z m45 -1 c3 -5 1 -10 -4 -10 -6 0 -11 5 -11 10 0 6 2 10 4
10 3 0 8 -4 11 -10z m197 -12 c-2 -10 -7 -18 -11 -18 -4 0 -7 8 -8 18 -1 10 4
19 11 19 8 0 11 -8 8 -19z m138 -28 c0 -5 -4 -10 -10 -10 -5 0 -10 5 -10 10 0
6 5 10 10 10 6 0 10 -4 10 -10z m-905 -14 c7 -1 23 -9 36 -19 14 -10 17 -14 6
-11 -11 4 -16 2 -14 -7 2 -8 2 -10 -1 -6 -2 4 -11 2 -20 -5 -12 -10 -14 -10
-8 0 5 8 0 12 -13 12 -15 0 -19 5 -15 18 5 13 4 14 -4 3 -6 -8 -9 -24 -6 -35
3 -19 2 -20 -10 -4 -10 14 -13 42 -7 66 1 2 11 0 22 -3 12 -4 27 -8 34 -9z
m199 -8 c-3 -4 -11 -5 -19 -1 -21 7 -19 12 4 10 11 0 18 -5 15 -9z m-502 -232
c7 4 8 2 4 -5 -9 -13 -26 -5 -25 12 0 9 2 8 6 -1 2 -6 10 -9 15 -6z m1828 -52
c0 -2 -7 -4 -15 -4 -8 0 -15 4 -15 10 0 5 7 7 15 4 8 -4 15 -8 15 -10z m-2059
-227 c-10 -9 -11 -8 -5 6 3 10 9 15 12 12 3 -3 0 -11 -7 -18z m-125 -35 c-18
-16 -18 -16 -6 6 6 13 14 21 18 18 3 -4 -2 -14 -12 -24z m49 -12 c4 -6 -1 -7
-11 -3 -10 4 -15 2 -12 -3 4 -5 0 -18 -8 -29 -8 -10 -14 -14 -14 -9 0 6 5 15
12 22 16 16 -3 15 -24 -2 -20 -14 -25 -31 -7 -20 8 4 8 1 0 -14 -7 -13 -17
-19 -26 -15 -10 3 -12 9 -6 17 5 6 9 15 9 21 -1 11 50 43 69 44 6 1 15 -3 18
-9z m2392 -70 c-1 -14 -5 -16 -13 -9 -8 7 -14 6 -19 -1 -3 -5 -12 -10 -18 -10
-7 0 -6 4 3 10 10 6 11 10 3 10 -7 0 -13 5 -13 11 0 8 4 8 14 0 11 -9 15 -8
20 4 8 21 25 10 23 -15z m-2534 -205 c-3 -9 -8 -14 -10 -11 -3 3 -2 9 2 15 9
16 15 13 8 -4z m2693 -182 c-8 -8 -36 10 -36 24 0 8 -5 11 -10 8 -6 -4 -7 -12
-3 -18 4 -7 0 -6 -10 2 -18 14 -23 26 -8 16 5 -3 13 0 16 6 5 7 15 3 31 -12
13 -12 22 -24 20 -26z m-2739 -18 c0 -8 -4 -12 -9 -9 -5 3 -6 10 -3 15 9 13
12 11 12 -6z m2739 -118 c4 -6 4 -9 -1 -5 -4 4 -17 2 -29 -4 -18 -10 -19 -9
-9 4 10 11 10 17 0 27 -10 11 -8 11 10 2 12 -6 25 -17 29 -24z m-26 -41 c0 -2
-8 -10 -17 -17 -16 -13 -17 -12 -4 4 13 16 21 21 21 13z m-2773 -118 c-3 -8
-6 -5 -6 6 -1 11 2 17 5 13 3 -3 4 -12 1 -19z m-5 -170 c-7 -7 -10 -5 -7 8 5
29 6 30 12 16 3 -8 1 -18 -5 -24z m-22 -39 c0 -6 -4 -7 -10 -4 -5 3 -10 11
-10 16 0 6 5 7 10 4 6 -3 10 -11 10 -16z m60 1 c0 -5 -5 -10 -11 -10 -5 0 -7
5 -4 10 3 6 8 10 11 10 2 0 4 -4 4 -10z m2750 -175 c-13 -16 -40 -9 -40 9 0
21 12 26 32 15 15 -8 17 -13 8 -24z m-2720 -19 c0 -3 -4 -8 -10 -11 -5 -3 -10
-1 -10 4 0 6 5 11 10 11 6 0 10 -2 10 -4z m2637 -125 c9 8 13 8 13 1 0 -13
-39 -36 -48 -28 -3 3 0 6 8 6 10 0 10 3 -1 18 -11 14 -11 15 1 5 10 -9 17 -10
27 -2z m-2577 -75 c0 -7 10 -26 23 -42 12 -16 21 -30 20 -31 -9 -9 -1 -23 10
-17 6 4 9 4 5 -1 -4 -4 -3 -14 4 -22 8 -11 7 -12 -5 -7 -8 3 -18 12 -21 21 -5
12 -9 13 -21 3 -20 -16 -19 -3 0 17 19 19 3 43 -28 43 -16 0 -18 3 -9 12 15
15 16 42 0 32 -7 -4 -8 -3 -4 5 9 14 26 5 26 -13z m33 -11 c-3 -9 -8 -14 -10
-11 -3 3 -2 9 2 15 9 16 15 13 8 -4z m2505 -56 c-15 -10 -17 -8 -23 21 -4 22
-4 22 16 4 14 -13 16 -19 7 -25z m-136 -126 c-6 -2 -9 -10 -6 -15 4 -7 2 -8
-5 -4 -13 9 -5 26 12 25 9 0 8 -2 -1 -6z m42 -28 c-7 -17 -20 -20 -28 -6 -7
10 3 21 20 21 8 0 11 -6 8 -15z m-2281 -6 c-6 -6 -9 -19 -6 -28 4 -12 2 -11
-9 3 -14 17 -15 17 -21 2 -8 -19 -27 -13 -27 9 0 8 9 12 25 10 14 -1 28 2 31
6 3 5 8 9 12 9 3 0 1 -5 -5 -11z m-5 -61 c-2 -6 -10 -13 -16 -14 -7 -1 -8 0
-2 3 5 2 8 9 4 14 -3 5 0 9 6 9 7 0 10 -5 8 -12z m2179 -10 c-3 -8 -6 -5 -6 6
-1 11 2 17 5 13 3 -3 4 -12 1 -19z m-2105 -39 c5 -3 3 -11 -4 -17 -10 -8 -13
-3 -15 21 0 18 1 25 4 17 3 -8 10 -18 15 -21z m2143 21 c3 -5 2 -10 -4 -10 -5
0 -13 5 -16 10 -3 6 -2 10 4 10 5 0 13 -4 16 -10z m-75 -29 c-13 -25 -13 -34
0 -26 16 10 12 -1 -6 -16 -14 -12 -16 -10 -13 16 2 17 8 33 14 37 16 12 17 10
5 -11z m-60 -62 c0 -5 -4 -9 -8 -9 -5 0 -9 7 -9 15 0 8 4 12 9 9 4 -3 8 -9 8
-15z m0 -24 c14 8 32 -4 24 -17 -4 -6 -10 -5 -15 3 -7 11 -9 9 -9 -5 0 -19 -1
-19 -20 2 -23 25 -27 40 -5 22 8 -6 19 -9 25 -5z m-77 -100 c-6 -17 -25 -15
-31 3 -2 7 5 12 17 12 14 0 19 -5 14 -15z m-1620 -53 c4 10 7 10 18 -1 8 -8 9
-11 2 -7 -6 3 -16 0 -20 -9 -7 -12 -11 -11 -22 8 -13 20 -13 21 1 9 13 -10 17
-10 21 0z m134 -78 c-3 -3 -12 -4 -19 -1 -8 3 -5 6 6 6 11 1 17 -2 13 -5z
m115 -58 c4 3 8 0 8 -6 0 -6 5 -8 11 -4 7 4 7 -1 -1 -15 -10 -19 -14 -20 -27
-9 -9 7 -26 11 -37 10 -17 -3 -19 -1 -8 9 10 11 8 17 -10 32 -20 15 -17 15 16
-2 22 -11 43 -18 48 -15z m723 -46 c3 -5 1 -10 -4 -10 -6 0 -11 5 -11 10 0 6
2 10 4 10 3 0 8 -4 11 -10z m-491 -16 c3 -8 2 -12 -4 -9 -6 3 -10 10 -10 16 0
14 7 11 14 -7z m422 -33 c-13 -20 -26 -12 -24 14 2 21 4 23 16 11 8 -8 11 -19
8 -25z m-230 12 c-8 -8 -86 -10 -86 -3 0 4 20 7 45 7 25 0 43 -2 41 -4z"/>
<path d="M3561 5341 c-10 -6 -9 -10 3 -14 8 -3 18 -2 21 3 8 13 -9 20 -24 11z"/>
<path d="M5460 3671 c0 -6 4 -13 10 -16 6 -3 7 1 4 9 -7 18 -14 21 -14 7z"/>
<path d="M3607 2699 c7 -7 15 -10 18 -7 3 3 -2 9 -12 12 -14 6 -15 5 -6 -5z"/>
<path d="M4235 5480 c-3 -5 -1 -10 4 -10 6 0 11 5 11 10 0 6 -2 10 -4 10 -3 0
-8 -4 -11 -10z"/>
<path d="M4386 5482 c-2 -4 4 -8 14 -8 10 0 16 4 14 8 -3 4 -9 8 -14 8 -5 0
-11 -4 -14 -8z"/>
<path d="M3621 5461 c-8 -5 -9 -11 -3 -15 5 -3 12 1 16 9 6 17 6 18 -13 6z"/>
<path d="M3810 5448 c0 -3 9 -6 20 -5 11 1 20 5 20 9 0 3 -9 6 -20 5 -11 -1
-20 -5 -20 -9z"/>
<path d="M4005 5450 c3 -5 10 -10 16 -10 5 0 9 5 9 10 0 6 -7 10 -16 10 -8 0
-12 -4 -9 -10z"/>
<path d="M4336 5452 c-3 -4 4 -9 15 -9 23 -2 25 3 4 10 -8 4 -16 3 -19 -1z"/>
<path d="M3675 5439 c-4 -6 -4 -13 -1 -16 3 -4 6 -1 6 6 0 8 8 11 20 8 11 -3
20 -1 20 4 0 13 -37 11 -45 -2z"/>
<path d="M4377 5419 c-15 -16 -24 -29 -19 -29 5 0 12 3 16 8 4 4 12 7 18 7 6
0 13 10 14 23 5 27 6 27 -29 -9z"/>
<path d="M4490 5441 c-8 -6 -18 -7 -24 -4 -5 3 -6 1 -2 -5 3 -5 0 -12 -6 -15
-7 -2 -10 -8 -5 -12 4 -5 13 0 21 10 7 10 17 15 23 12 5 -3 10 0 10 8 0 8 -1
15 -1 15 -1 0 -8 -4 -16 -9z"/>
<path d="M3641 5427 c-8 -10 -7 -14 2 -14 8 0 14 6 14 14 0 7 -1 13 -2 13 -2
0 -8 -6 -14 -13z"/>
<path d="M3780 5429 c0 -5 5 -7 10 -4 6 3 10 8 10 11 0 2 -4 4 -10 4 -5 0 -10
-5 -10 -11z"/>
<path d="M4425 5430 c-3 -5 -2 -10 4 -10 5 0 13 5 16 10 3 6 2 10 -4 10 -5 0
-13 -4 -16 -10z"/>
<path d="M3507 5410 c-31 -11 -43 -19 -34 -23 9 -3 33 3 54 14 36 18 39 19 52
2 13 -17 13 -17 7 0 -3 10 -6 21 -6 23 0 7 -23 2 -73 -16z"/>
<path d="M3720 5405 c13 -16 30 -11 30 8 0 7 -4 6 -10 -3 -6 -10 -10 -11 -10
-2 0 6 -5 12 -11 12 -8 0 -8 -5 1 -15z"/>
<path d="M4566 5407 c3 -10 9 -15 12 -12 3 3 0 11 -7 18 -10 9 -11 8 -5 -6z"/>
<path d="M5696 5405 c-11 -8 -15 -15 -9 -15 6 0 16 7 23 15 16 19 11 19 -14 0z"/>
<path d="M4490 5399 c-13 -8 -12 -12 5 -25 18 -13 21 -13 31 1 6 8 13 13 16
10 2 -3 5 2 5 10 0 11 -4 12 -10 6 -7 -7 -15 -7 -22 -1 -6 5 -16 5 -25 -1z
m29 -22 c0 -9 -2 -8 -6 1 -2 6 -10 9 -15 6 -7 -4 -8 -2 -4 5 9 13 26 5 25 -12z"/>
<path d="M4600 5383 c0 -6 -10 -9 -22 -7 -21 4 -21 4 -3 -5 20 -9 45 3 32 16
-4 3 -7 2 -7 -4z"/>
<path d="M3627 5365 c-4 -8 -1 -17 5 -21 7 -4 8 -3 4 4 -4 7 -2 12 3 12 6 0
11 5 11 10 0 15 -17 12 -23 -5z"/>
<path d="M4635 5370 c3 -5 8 -10 11 -10 2 0 4 5 4 10 0 6 -5 10 -11 10 -5 0
-7 -4 -4 -10z"/>
<path d="M3418 5363 c7 -3 16 -2 19 1 4 3 -2 6 -13 5 -11 0 -14 -3 -6 -6z"/>
<path d="M3373 5346 c-9 -10 -4 -15 22 -23 28 -9 33 -8 28 4 -3 8 -12 12 -20
8 -11 -3 -13 -1 -9 10 7 18 -5 19 -21 1z"/>
<path d="M3445 5350 c-3 -6 1 -7 9 -4 18 7 21 14 7 14 -6 0 -13 -4 -16 -10z"/>
<path d="M4710 5350 c0 -4 7 -7 15 -6 23 3 26 12 5 13 -11 1 -20 -2 -20 -7z"/>
<path d="M3126 5283 c-6 -14 -5 -15 5 -6 7 7 10 15 7 18 -3 3 -9 -2 -12 -12z"/>
<path d="M4814 5254 c-18 -14 -18 -15 4 -4 12 6 22 13 22 15 0 8 -5 6 -26 -11z"/>
<path d="M4848 5246 c-15 -11 -15 -15 7 -42 13 -16 27 -25 31 -21 10 10 -10
43 -25 40 -12 -3 -15 10 -4 20 3 4 15 -1 26 -10 13 -11 17 -12 12 -4 -6 11 -4
13 8 8 10 -3 17 -2 17 3 0 6 -6 10 -12 11 -7 0 -20 2 -29 4 -8 1 -22 -3 -31
-9z"/>
<path d="M4977 5209 c6 -23 9 -24 16 -5 3 8 0 17 -7 19 -10 4 -12 -1 -9 -14z"/>
<path d="M3140 5205 c-1 -5 -3 -20 -6 -33 -2 -13 1 -31 7 -40 8 -14 9 -12 6
10 -2 15 0 29 6 31 7 2 6 10 -1 23 -6 10 -12 15 -12 9z"/>
<path d="M4917 5181 c-4 -17 -3 -21 5 -13 5 5 8 16 6 23 -3 8 -7 3 -11 -10z"/>
<path d="M4940 5189 c0 -5 5 -7 10 -4 6 3 10 8 10 11 0 2 -4 4 -10 4 -5 0 -10
-5 -10 -11z"/>
<path d="M5003 5185 c0 -8 4 -12 9 -9 5 3 6 10 3 15 -9 13 -12 11 -12 -6z"/>
<path d="M3107 5173 c-8 -13 5 -73 15 -73 5 0 6 10 2 23 -4 12 -8 30 -8 40 0
19 -2 21 -9 10z"/>
<path d="M4955 5170 c-7 -11 22 -26 32 -16 4 3 -1 6 -11 6 -9 0 -14 5 -11 10
3 6 4 10 1 10 -3 0 -8 -5 -11 -10z"/>
<path d="M1028 5163 c7 -3 16 -2 19 1 4 3 -2 6 -13 5 -11 0 -14 -3 -6 -6z"/>
<path d="M1075 5142 c1 -10 -3 -23 -9 -31 -8 -11 -8 -13 1 -8 6 4 14 1 16 -5
4 -10 6 -10 6 0 1 6 6 12 13 12 6 0 20 7 30 17 11 9 18 11 18 5 0 -7 -4 -12
-9 -12 -5 0 -8 -8 -6 -17 2 -10 4 -20 4 -23 1 -3 6 2 11 10 6 9 10 10 10 3 0
-18 -20 -27 -33 -14 -6 6 -16 11 -21 11 -6 0 -3 -5 7 -11 14 -8 15 -14 6 -31
-6 -11 -7 -18 -2 -15 4 3 13 -6 20 -19 6 -13 7 -22 2 -18 -5 3 -9 1 -9 -5 0
-5 9 -13 20 -16 11 -3 20 -11 20 -17 0 -7 -5 -7 -14 1 -11 9 -15 8 -20 -5 -8
-21 -8 -24 5 -24 5 0 7 6 3 13 -5 8 -2 8 9 -2 9 -7 17 -19 17 -25 0 -6 -5 -4
-10 4 -7 11 -10 11 -10 2 0 -7 -5 -10 -12 -6 -6 4 -8 3 -4 -4 3 -5 3 -12 -1
-15 -5 -2 -3 -2 4 -1 7 2 15 -1 18 -6 6 -9 -8 -14 -28 -11 -5 1 -5 -4 -2 -10
4 -6 8 -26 10 -45 2 -38 10 -51 20 -35 3 6 1 11 -6 11 -8 0 -7 5 2 17 8 9 9
14 3 10 -8 -4 -11 2 -10 18 1 30 17 17 18 -16 1 -13 6 -30 11 -36 5 -7 6 -13
2 -13 -4 0 -1 -8 6 -17 13 -17 13 -17 -5 -3 -11 8 -28 14 -39 12 -13 -3 -17 0
-12 9 5 8 4 10 -3 5 -15 -9 3 -46 21 -46 7 0 6 4 -3 10 -13 8 -13 10 1 10 9 0
20 -7 23 -16 3 -8 2 -13 -3 -9 -5 3 -16 -1 -24 -9 -8 -8 -17 -13 -19 -11 -3 3
-5 -1 -5 -9 0 -8 5 -14 11 -13 6 1 10 -5 8 -14 -1 -9 4 -21 11 -28 10 -8 14
-7 14 4 0 8 -5 12 -10 8 -5 -3 -6 3 -2 16 4 14 2 21 -6 21 -10 0 -10 3 -1 12
16 16 33 -7 28 -37 -5 -27 12 -57 27 -49 7 4 8 3 4 -1 -12 -14 -38 -15 -30 -2
3 7 2 9 -2 4 -5 -4 -17 0 -27 10 -26 23 -22 8 5 -18 l22 -22 -27 7 c-37 9 -36
1 2 -13 18 -6 28 -6 25 -1 -4 6 1 10 11 10 13 0 14 -3 5 -14 -9 -10 -9 -16 -1
-21 7 -4 8 -11 2 -18 -5 -7 -8 -22 -7 -34 2 -27 -3 -28 -35 -7 l-25 16 22 -20
c14 -12 18 -23 12 -29 -6 -6 -4 -10 5 -10 8 0 13 3 12 6 -2 3 6 6 19 6 13 0
21 -3 18 -7 -2 -5 -11 -8 -19 -8 -8 0 -14 -5 -14 -11 0 -5 -4 -8 -9 -5 -4 3
-6 -12 -4 -33 4 -35 2 -40 -19 -44 -26 -4 140 -10 312 -9 106 0 121 2 195 31
44 18 98 41 121 52 22 10 46 19 52 19 7 0 16 10 21 22 4 12 21 27 38 32 46 17
123 110 123 149 0 18 7 50 14 72 8 22 17 60 21 85 6 43 5 46 -25 64 -19 11
-40 36 -51 60 -13 30 -30 49 -61 65 -24 13 -63 36 -88 51 -36 23 -72 32 -190
49 -223 33 -377 49 -466 49 -71 0 -82 -2 -79 -16z m34 -13 c-15 -9 -32 -2 -24
11 3 5 13 6 21 3 12 -4 13 -8 3 -14z m41 -80 c0 8 2 12 5 9 3 -3 2 -13 -1 -22
-5 -14 -9 -15 -15 -4 -5 7 -9 18 -9 23 0 6 5 3 10 -5 8 -12 10 -12 10 -1z m42
-631 c-17 -17 -15 -28 6 -21 18 6 17 5 -9 -15 -13 -10 -15 -7 -15 18 0 16 4
26 10 23 6 -4 7 1 2 13 -6 15 -5 17 5 7 10 -10 10 -16 1 -25z"/>
<path d="M2930 5116 c0 -2 7 -7 16 -10 8 -3 12 -2 9 4 -6 10 -25 14 -25 6z"/>
<path d="M1080 5076 c0 -2 8 -10 18 -17 15 -13 16 -12 3 4 -13 16 -21 21 -21
13z"/>
<path d="M5096 5035 c-3 -8 -1 -15 4 -15 6 0 10 7 10 15 0 8 -2 15 -4 15 -2 0
-6 -7 -10 -15z"/>
<path d="M3020 5030 c0 -5 5 -10 11 -10 5 0 7 5 4 10 -3 6 -8 10 -11 10 -2 0
-4 -4 -4 -10z"/>
<path d="M5118 5014 c-4 -6 1 -19 12 -29 12 -10 20 -13 20 -7 0 7 -4 12 -9 12
-5 0 -11 8 -13 18 -2 11 -6 13 -10 6z"/>
<path d="M2983 4996 c-9 -11 -9 -15 0 -19 7 -3 14 3 14 14 2 22 2 22 -14 5z"/>
<path d="M3046 4995 c7 -18 6 -19 -9 -6 -15 12 -17 12 -11 -4 5 -13 4 -16 -4
-11 -7 4 -12 2 -12 -3 0 -15 13 -14 36 3 16 12 17 17 6 28 -11 11 -12 10 -6
-7z"/>
<path d="M5178 4986 c-20 -15 -25 -31 -6 -20 7 5 9 2 5 -8 -3 -9 1 -24 9 -35
14 -17 15 -17 5 3 -9 18 -7 25 12 37 l22 16 -25 -5 c-24 -5 -24 -5 -6 10 24
19 8 21 -16 2z"/>
<path d="M1101 4966 c-10 -11 -9 -14 1 -12 14 2 23 15 15 22 -2 2 -10 -2 -16
-10z"/>
<path d="M2935 4950 c-4 -6 -1 -9 7 -8 7 2 12 -3 10 -10 -1 -8 2 -11 8 -7 8 5
7 11 -1 21 -14 17 -16 17 -24 4z"/>
<path d="M5200 4942 c0 -7 4 -12 10 -12 5 0 7 -8 3 -17 -5 -15 -3 -16 8 -5 11
10 10 15 -4 29 -11 11 -17 13 -17 5z"/>
<path d="M5240 4929 c0 -5 5 -7 10 -4 6 3 10 8 10 11 0 2 -4 4 -10 4 -5 0 -10
-5 -10 -11z"/>
<path d="M2915 4920 c3 -5 8 -10 11 -10 2 0 4 5 4 10 0 6 -5 10 -11 10 -5 0
-7 -4 -4 -10z"/>
<path d="M2950 4906 c0 -2 8 -10 18 -17 15 -13 16 -12 3 4 -13 16 -21 21 -21
13z"/>
<path d="M2930 4890 c0 -5 5 -10 11 -10 5 0 7 5 4 10 -3 6 -8 10 -11 10 -2 0
-4 -4 -4 -10z"/>
<path d="M2845 4839 c-4 -6 -4 -13 -1 -16 3 -4 6 -1 6 6 0 7 5 9 10 6 6 -3 10
-1 10 4 0 14 -17 14 -25 0z"/>
<path d="M5285 4829 c-10 -15 -13 -59 -6 -64 4 -2 12 5 19 16 10 16 9 19 -3
19 -13 0 -14 4 -5 20 11 20 6 28 -5 9z"/>
<path d="M1100 4800 c-6 -11 -8 -20 -6 -20 3 0 10 9 16 20 6 11 8 20 6 20 -3
0 -10 -9 -16 -20z"/>
<path d="M5300 4815 c0 -7 30 -13 34 -7 3 4 -4 9 -15 9 -10 1 -19 0 -19 -2z"/>
<path d="M2828 4793 c7 -3 16 -2 19 1 4 3 -2 6 -13 5 -11 0 -14 -3 -6 -6z"/>
<path d="M5346 4792 c-3 -5 1 -9 9 -9 8 0 15 4 15 9 0 4 -4 8 -9 8 -6 0 -12
-4 -15 -8z"/>
<path d="M2781 4726 c-8 -10 -9 -16 -1 -21 5 -3 10 0 10 9 0 8 6 17 13 19 7 4
8 6 1 6 -6 1 -17 -5 -23 -13z"/>
<path d="M5385 4721 c-3 -5 -2 -12 3 -15 5 -3 9 1 9 9 0 17 -3 19 -12 6z"/>
<path d="M5323 4677 c-3 -7 -3 -9 2 -5 4 4 14 3 21 -3 7 -6 15 -6 18 -1 3 6
-3 12 -14 15 -11 3 -23 0 -27 -6z"/>
<path d="M2810 4664 c0 -17 14 -18 28 -1 8 10 6 13 -9 14 -10 1 -19 -5 -19
-13z"/>
<path d="M5431 4663 c7 -12 15 -20 18 -17 3 2 -3 12 -13 22 -17 16 -18 16 -5
-5z"/>
<path d="M2783 4642 c10 -4 18 -11 18 -15 -3 -22 0 -27 10 -21 8 5 8 9 -1 14
-6 4 -11 11 -10 16 0 5 -7 10 -17 11 -17 3 -17 2 0 -5z"/>
<path d="M5406 4641 c-17 -6 -17 -8 -4 -14 10 -3 19 0 22 9 3 8 4 14 3 13 -1
0 -11 -4 -21 -8z"/>
<path d="M2778 4606 c7 -14 6 -26 -5 -43 -11 -17 -12 -23 -3 -23 7 0 2 -10
-12 -23 -22 -20 -23 -24 -9 -37 13 -13 14 -12 9 2 -4 10 1 23 14 34 25 23 46
60 27 49 -9 -6 -11 -4 -6 7 3 9 -1 24 -9 35 -15 17 -15 17 -6 -1z"/>
<path d="M2729 4584 c-10 -12 -10 -20 -1 -35 7 -11 10 -25 6 -31 -4 -7 -3 -8
5 -4 6 4 10 13 9 19 -1 7 4 23 11 35 7 13 10 26 7 30 -3 3 -6 0 -6 -6 0 -7 -5
-12 -11 -12 -5 0 -7 5 -4 10 10 16 -1 12 -16 -6z m16 -13 c3 -5 1 -12 -5 -16
-5 -3 -10 1 -10 9 0 18 6 21 15 7z"/>
<path d="M1100 4565 c0 -8 2 -15 4 -15 2 0 6 7 10 15 3 8 1 15 -4 15 -6 0 -10
-7 -10 -15z"/>
<path d="M1137 4573 c-3 -5 -1 -17 4 -28 l8 -20 0 20 c1 15 3 17 10 6 6 -9 11
-10 15 -3 4 6 -2 16 -13 22 -11 5 -22 7 -24 3z"/>
<path d="M5450 4569 c0 -15 18 -19 23 -6 3 8 -1 14 -9 14 -8 0 -14 -4 -14 -8z"/>
<path d="M2690 4489 c0 -5 5 -7 10 -4 6 3 10 8 10 11 0 2 -4 4 -10 4 -5 0 -10
-5 -10 -11z"/>
<path d="M6865 4490 c-214 -12 -408 -82 -505 -181 -49 -50 -50 -52 -50 -113 0
-55 -3 -63 -26 -81 l-27 -20 29 -5 c43 -8 38 -35 -6 -33 -32 1 -33 0 -16 -12
10 -8 15 -19 10 -26 -5 -9 -1 -11 14 -7 30 8 99 -27 142 -71 61 -62 235 -128
410 -155 52 -8 160 -29 239 -46 79 -16 147 -28 149 -25 3 3 11 0 18 -5 6 -6
20 -13 30 -15 69 -16 70 -16 41 -4 -15 6 -25 15 -21 20 3 5 0 9 -5 9 -6 0 -11
-4 -11 -10 0 -5 -7 -7 -16 -3 -14 5 -13 9 7 24 13 10 19 19 12 19 -6 0 -14 -4
-17 -9 -3 -5 -16 -11 -28 -14 -21 -6 -22 -5 -5 7 15 12 16 14 2 20 -8 3 -15 1
-15 -4 0 -16 -27 -11 -34 6 -10 26 -7 29 9 8 10 -13 14 -15 15 -5 0 8 -8 24
-17 35 -17 20 -17 20 0 7 13 -10 17 -10 17 -1 0 7 8 10 20 7 11 -3 20 -1 20 5
0 6 -11 8 -25 6 -17 -4 -30 1 -42 16 l-18 21 24 -20 24 -20 -7 25 c-5 18 -5
21 3 10 8 -12 13 -12 35 0 14 7 24 15 22 17 -2 3 -14 0 -25 -7 -26 -13 -29 4
-3 20 14 9 13 10 -8 5 -16 -4 -21 -3 -12 3 7 5 12 15 10 22 -2 7 4 15 12 17
12 4 13 3 1 -5 -11 -8 -9 -12 10 -23 22 -11 23 -11 10 4 -7 10 -10 17 -5 17 4
0 3 5 -3 11 -6 6 -9 18 -6 27 5 11 3 13 -8 7 -8 -5 -11 -4 -6 0 13 14 37 14
37 0 0 -7 -5 -16 -10 -18 -6 -3 -5 -4 2 -3 7 2 13 11 13 22 0 14 -7 19 -27 18
-16 0 -28 1 -28 3 0 9 46 20 55 12 7 -5 11 0 12 13 1 11 12 32 25 45 16 17 17
22 6 18 -9 -4 -22 -18 -30 -33 -14 -28 -38 -41 -38 -21 0 8 -6 7 -17 -2 -16
-13 -17 -12 -4 4 7 9 10 17 5 17 -4 0 2 10 13 23 23 24 42 74 25 63 -11 -7
-10 19 1 30 4 4 -1 13 -11 21 -15 13 -15 13 6 3 18 -9 22 -8 22 5 0 10 -5 13
-12 9 -9 -5 -9 -2 1 9 11 14 11 20 0 35 -13 16 -13 16 7 0 24 -21 41 -24 27
-5 -16 19 -12 46 6 39 10 -4 11 -7 3 -10 -7 -2 -12 -8 -12 -14 0 -6 6 -5 15 2
10 9 12 17 6 23 -5 5 -7 17 -3 26 5 14 4 14 -13 1 -17 -14 -17 -14 -4 7 9 15
17 19 23 13 6 -6 13 -10 18 -10 4 0 -4 11 -17 25 -26 25 -31 40 -16 49 5 3 8
-1 7 -10 0 -9 9 -23 22 -32 13 -8 22 -11 21 -6 -4 17 13 44 25 38 6 -4 4 1 -5
10 -8 9 -32 17 -53 18 -20 1 -39 5 -41 8 -3 4 18 6 45 3 28 -3 50 -1 49 4 -4
21 3 33 19 34 32 2 -83 18 -244 34 -89 8 -163 14 -165 13 -2 -1 -62 -4 -134
-8z m483 -65 c-3 -3 -9 2 -12 12 -6 14 -5 15 5 6 7 -7 10 -15 7 -18z m27 16
c3 -5 1 -12 -5 -16 -5 -3 -10 1 -10 9 0 18 6 21 15 7z m-5 -65 c0 -15 -24 -28
-34 -19 -7 7 13 33 25 33 5 0 9 -6 9 -14z m-56 -35 c3 -5 -1 -14 -8 -20 -12
-10 -14 -9 -11 6 2 10 4 19 4 21 2 5 10 2 15 -7z m-24 -71 c0 -5 -5 -10 -11
-10 -5 0 -7 5 -4 10 3 6 8 10 11 10 2 0 4 -4 4 -10z"/>
<path d="M2665 4450 c-3 -6 1 -7 9 -4 18 7 21 14 7 14 -6 0 -13 -4 -16 -10z"/>
<path d="M2670 4425 c-11 -13 -10 -14 4 -9 9 3 16 10 16 15 0 13 -6 11 -20 -6z"/>
<path d="M7424 4425 c8 -8 18 -15 22 -15 3 0 1 7 -6 15 -7 8 -17 15 -22 15 -5
0 -3 -7 6 -15z"/>
<path d="M1135 4390 c3 -5 8 -10 11 -10 2 0 4 5 4 10 0 6 -5 10 -11 10 -5 0
-7 -4 -4 -10z"/>
<path d="M5498 4387 c-10 -6 -9 -8 3 -4 9 3 21 1 26 -4 6 -6 10 -5 10 4 0 16
-20 18 -39 4z"/>
<path d="M2690 4372 c0 -6 9 -12 20 -15 11 -3 20 -3 20 -1 0 2 -9 8 -20 14
-11 6 -20 7 -20 2z"/>
<path d="M2675 4320 c-4 -6 -10 -8 -15 -5 -5 3 -11 1 -15 -5 -3 -5 0 -10 7
-10 16 1 56 30 41 30 -7 0 -15 -5 -18 -10z"/>
<path d="M5470 4313 c0 -4 5 -15 10 -23 8 -13 10 -13 10 2 0 9 -4 20 -10 23
-5 3 -10 3 -10 -2z"/>
<path d="M2689 4303 c-1 -5 -1 -11 0 -15 0 -5 -3 -8 -8 -8 -6 0 -8 -9 -6 -20
2 -11 0 -22 -6 -25 -5 -4 -9 -11 -9 -18 0 -6 7 -1 16 11 8 12 20 20 25 17 5
-4 9 -2 9 4 0 5 -6 11 -12 14 -9 3 -8 10 6 26 17 19 17 21 3 21 -10 0 -18 -3
-18 -7z"/>
<path d="M2630 4281 c5 -11 15 -23 21 -27 6 -3 3 5 -6 20 -20 30 -30 35 -15 7z"/>
<path d="M7335 4290 c-3 -5 -1 -10 4 -10 6 0 11 5 11 10 0 6 -2 10 -4 10 -3 0
-8 -4 -11 -10z"/>
<path d="M7366 4287 c3 -10 9 -15 12 -12 3 3 0 11 -7 18 -10 9 -11 8 -5 -6z"/>
<path d="M5564 4262 c-4 -9 -6 -21 -5 -27 2 -5 3 -17 4 -27 1 -9 4 -15 8 -13
3 3 4 16 1 31 -3 15 1 29 8 34 8 5 8 10 2 14 -5 3 -13 -2 -18 -12z"/>
<path d="M2632 4236 c7 -8 15 -12 17 -11 5 6 -10 25 -20 25 -5 0 -4 -6 3 -14z"/>
<path d="M7314 4201 c4 -5 3 -11 -1 -14 -5 -2 -3 -3 3 -1 6 1 17 -3 23 -9 6
-6 11 -8 11 -3 0 9 -26 36 -35 36 -3 0 -4 -4 -1 -9z"/>
<path d="M5530 4191 c0 -6 4 -12 8 -15 5 -3 9 1 9 9 0 8 -4 15 -9 15 -4 0 -8
-4 -8 -9z"/>
<path d="M5559 4153 c-13 -16 -12 -17 4 -4 16 13 21 21 13 21 -2 0 -10 -8 -17
-17z"/>
<path d="M7281 4157 c-13 -17 -5 -28 16 -20 13 5 13 3 2 -15 -10 -16 -11 -24
-2 -33 9 -9 11 -7 6 10 -3 12 -2 21 3 19 14 -5 13 15 -1 35 -10 14 -14 15 -24
4z"/>
<path d="M2603 4108 c-1 -11 1 -16 5 -12 4 5 11 12 15 15 5 3 2 9 -5 12 -9 3
-14 -3 -15 -15z"/>
<path d="M2597 4073 c-4 -3 -7 -13 -7 -21 0 -18 13 -7 16 13 2 17 1 18 -9 8z"/>
<path d="M5568 4052 c-2 -17 1 -29 7 -29 6 0 9 12 7 29 -2 15 -5 28 -7 28 -2
0 -5 -13 -7 -28z"/>
<path d="M7256 4061 c-12 -13 -14 -21 -6 -26 6 -4 18 1 25 11 27 36 11 48 -19
15z m24 5 c0 -2 -8 -10 -17 -17 -16 -13 -17 -12 -4 4 13 16 21 21 21 13z"/>
<path d="M7306 4032 c-3 -5 1 -9 9 -9 8 0 15 4 15 9 0 4 -4 8 -9 8 -6 0 -12
-4 -15 -8z"/>
<path d="M2590 4000 c0 -5 5 -10 11 -10 5 0 7 5 4 10 -3 6 -8 10 -11 10 -2 0
-4 -4 -4 -10z"/>
<path d="M2603 3962 c1 -12 6 -18 15 -15 7 3 10 9 5 12 -4 3 -11 10 -15 15 -4
4 -6 -1 -5 -12z"/>
<path d="M5505 3970 c3 -5 8 -10 11 -10 2 0 4 5 4 10 0 6 -5 10 -11 10 -5 0
-7 -4 -4 -10z"/>
<path d="M2653 3955 c0 -8 4 -12 9 -9 5 3 6 10 3 15 -9 13 -12 11 -12 -6z"/>
<path d="M7311 3954 c0 -11 3 -14 6 -6 3 7 2 16 -1 19 -3 4 -6 -2 -5 -13z"/>
<path d="M2603 3906 c-1 -12 1 -15 4 -8 3 6 8 10 12 8 4 -3 8 1 8 8 0 22 -23
14 -24 -8z"/>
<path d="M2647 3923 c8 -3 11 -15 8 -31 -5 -26 -5 -26 5 -4 11 26 6 42 -13 41
-9 0 -9 -2 0 -6z"/>
<path d="M5485 3911 c-3 -5 0 -13 6 -16 5 -4 8 -14 5 -22 -4 -8 -1 -11 5 -8 6
4 8 13 5 21 -3 8 -1 14 4 14 6 0 10 5 10 10 0 13 -27 13 -35 1z"/>
<path d="M5530 3908 c0 -6 3 -8 7 -5 3 4 11 2 18 -3 8 -7 12 -6 12 3 0 7 -9
14 -19 14 -10 1 -18 -3 -18 -9z"/>
<path d="M5521 3885 c-2 -24 14 -33 29 -17 13 14 12 15 -2 9 -9 -3 -19 -1 -22
6 -2 7 -5 8 -5 2z"/>
<path d="M7266 3815 c-3 -8 -1 -15 4 -15 6 0 10 7 10 15 0 8 -2 15 -4 15 -2 0
-6 -7 -10 -15z"/>
<path d="M2677 3794 c-16 -21 -16 -25 -3 -30 9 -3 16 -14 16 -23 0 -14 2 -14
10 -1 6 10 6 16 -1 18 -6 3 -6 9 1 17 7 8 8 20 3 28 -6 12 -11 11 -26 -9z m18
-13 c-3 -6 -11 -11 -17 -11 -6 0 -6 6 2 15 14 17 26 13 15 -4z"/>
<path d="M2631 3794 c0 -11 3 -14 6 -6 3 7 2 16 -1 19 -3 4 -6 -2 -5 -13z"/>
<path d="M5516 3783 c-6 -14 -5 -15 5 -6 7 7 10 15 7 18 -3 3 -9 -2 -12 -12z"/>
<path d="M7215 3791 c-3 -5 -2 -12 3 -15 5 -3 9 1 9 9 0 17 -3 19 -12 6z"/>
<path d="M5540 3739 c0 -5 5 -7 10 -4 6 3 10 8 10 11 0 2 -4 4 -10 4 -5 0 -10
-5 -10 -11z"/>
<path d="M2707 3726 c-4 -10 -1 -13 8 -9 8 3 12 9 9 14 -7 12 -11 11 -17 -5z"/>
<path d="M5519 3728 c-1 -2 -3 -13 -4 -25 -2 -19 1 -21 16 -12 24 12 25 21 2
12 -12 -5 -15 -2 -10 10 5 13 1 26 -4 15z"/>
<path d="M2666 3712 c-3 -5 1 -9 9 -9 8 0 15 4 15 9 0 4 -4 8 -9 8 -6 0 -12
-4 -15 -8z"/>
<path d="M2710 3689 c0 -5 -4 -8 -9 -5 -5 3 -11 0 -14 -7 -3 -8 1 -14 9 -14 8
0 14 4 14 9 0 5 4 7 8 4 5 -3 9 1 9 9 0 8 -4 15 -9 15 -4 0 -8 -5 -8 -11z"/>
<path d="M5525 3670 c-3 -5 -1 -10 4 -10 6 0 11 5 11 10 0 6 -2 10 -4 10 -3 0
-8 -4 -11 -10z"/>
<path d="M2656 3653 c-6 -14 -5 -15 5 -6 7 7 10 15 7 18 -3 3 -9 -2 -12 -12z"/>
<path d="M2695 3640 c-3 -5 -1 -10 4 -10 6 0 11 5 11 10 0 6 -2 10 -4 10 -3 0
-8 -4 -11 -10z"/>
<path d="M5502 3586 c7 -8 15 -12 17 -11 5 6 -10 25 -20 25 -5 0 -4 -6 3 -14z"/>
<path d="M5460 3576 c0 -2 7 -7 16 -10 8 -3 12 -2 9 4 -6 10 -25 14 -25 6z"/>
<path d="M2745 3540 c-10 -11 -13 -20 -7 -20 7 0 12 5 12 12 0 9 3 9 11 1 13
-13 3 -36 -12 -28 -5 3 -6 -1 -3 -9 3 -9 13 -12 22 -9 14 5 15 3 5 -8 -7 -7
-13 -18 -13 -23 0 -6 5 -3 11 7 6 9 14 15 20 12 5 -3 6 1 3 9 -3 9 -11 16 -17
16 -6 0 -4 6 4 13 8 6 12 11 10 10 -8 -5 -31 20 -25 28 9 16 -2 10 -21 -11z"/>
<path d="M2680 3500 c0 -5 5 -10 11 -10 5 0 7 5 4 10 -3 6 -8 10 -11 10 -2 0
-4 -4 -4 -10z"/>
<path d="M2755 3430 c-3 -5 -1 -10 4 -10 6 0 11 5 11 10 0 6 -2 10 -4 10 -3 0
-8 -4 -11 -10z"/>
<path d="M5422 3426 c7 -8 15 -12 17 -11 5 6 -10 25 -20 25 -5 0 -4 -6 3 -14z"/>
<path d="M5376 3422 c-3 -5 1 -9 9 -9 8 0 12 4 9 9 -3 4 -7 8 -9 8 -2 0 -6 -4
-9 -8z"/>
<path d="M5417 3383 c-4 -3 -7 -11 -7 -17 0 -6 5 -5 12 2 6 6 9 14 7 17 -3 3
-9 2 -12 -2z"/>
<path d="M2771 3367 c-8 -10 -7 -14 2 -14 8 0 14 6 14 14 0 7 -1 13 -2 13 -2
0 -8 -6 -14 -13z"/>
<path d="M5370 3341 c0 -5 7 -12 16 -15 8 -3 12 -11 8 -17 -5 -8 -3 -9 5 -5 9
6 8 13 -5 27 -19 21 -24 23 -24 10z"/>
<path d="M2770 3336 c0 -2 7 -9 15 -16 13 -11 14 -10 9 4 -5 14 -24 23 -24 12z"/>
<path d="M5356 3305 c4 -8 8 -15 10 -15 2 0 4 7 4 15 0 8 -4 15 -10 15 -5 0
-7 -7 -4 -15z"/>
<path d="M1830 3285 c-30 -8 -121 -28 -202 -46 -96 -21 -145 -36 -141 -43 4
-7 2 -7 -6 0 -9 9 -24 8 -59 -3 -26 -8 -60 -17 -77 -20 -35 -6 -46 -13 -21
-13 9 0 14 -4 11 -10 -4 -6 7 -10 24 -10 17 0 31 5 31 10 0 6 -6 10 -12 10 -9
0 -9 3 1 9 20 13 43 -17 27 -35 -6 -6 -15 -9 -20 -6 -5 3 -5 -1 0 -9 4 -8 9
-30 10 -49 2 -53 4 -56 14 -40 5 8 6 19 2 25 -14 19 -7 48 12 51 14 2 16 0 7
-9 -17 -17 -13 -27 7 -21 13 4 14 3 4 -4 -19 -13 -19 -16 -2 -38 14 -17 14
-18 -2 -6 -15 12 -18 11 -23 -11 -8 -29 11 -71 26 -61 7 4 7 -1 0 -15 -7 -11
-8 -21 -4 -21 4 0 0 -7 -10 -14 -12 -9 -19 -30 -21 -60 -3 -47 7 -77 21 -62 4
5 3 11 -3 13 -16 6 -6 75 14 93 14 13 15 13 4 -1 -9 -12 -9 -19 1 -29 9 -10 9
-11 -1 -5 -22 12 -10 -82 12 -98 16 -12 16 -13 -3 -13 -11 0 -17 4 -15 8 3 4
-3 5 -12 1 -11 -4 -13 -8 -6 -11 7 -2 12 -12 12 -23 0 -13 5 -17 18 -13 10 4
13 2 7 -3 -16 -13 -12 -82 5 -93 13 -8 13 -10 -1 -10 -9 0 -19 -9 -22 -21 -4
-14 -1 -19 7 -16 6 3 12 -3 12 -13 0 -10 -4 -16 -8 -14 -4 3 -8 0 -8 -5 0 -6
4 -11 10 -11 5 0 8 -10 6 -22 -3 -13 -5 -27 -5 -32 -1 -6 -8 -1 -17 10 -8 10
-13 13 -9 7 3 -8 0 -13 -8 -13 -7 0 -14 -7 -14 -16 0 -11 7 -14 26 -10 16 3
11 -1 -14 -13 -22 -10 -49 -16 -60 -14 -15 4 -17 2 -6 -5 7 -5 9 -12 5 -14
-12 -6 10 1 78 25 31 11 54 25 51 30 -3 6 -1 7 6 3 10 -7 113 38 305 134 29
14 56 36 63 51 9 18 33 34 80 54 41 17 88 47 119 75 27 26 59 50 71 54 41 13
115 212 97 260 -3 9 3 17 17 21 20 7 21 8 5 17 -9 5 -24 7 -32 4 -19 -7 -30
20 -15 38 9 11 5 15 -24 20 -21 4 -41 17 -51 31 -10 16 -31 27 -66 34 -28 6
-63 20 -78 31 -32 23 -71 24 -150 5z m-375 -295 c3 -5 1 -10 -4 -10 -6 0 -11
5 -11 10 0 6 2 10 4 10 3 0 8 -4 11 -10z"/>
<path d="M5330 3270 c-11 -7 -11 -10 -2 -10 8 0 10 -5 6 -12 -4 -7 -3 -9 1 -5
7 6 17 37 12 37 -1 0 -9 -5 -17 -10z"/>
<path d="M2887 3189 c7 -7 15 -10 18 -7 3 3 -2 9 -12 12 -14 6 -15 5 -6 -5z"/>
<path d="M5210 3165 c-8 -9 -8 -15 -2 -15 12 0 26 19 19 26 -2 2 -10 -2 -17
-11z"/>
<path d="M1236 3141 c-4 -5 3 -7 14 -4 23 6 26 13 6 13 -8 0 -17 -4 -20 -9z"/>
<path d="M1328 3123 c7 -3 16 -2 19 1 4 3 -2 6 -13 5 -11 0 -14 -3 -6 -6z"/>
<path d="M5256 3118 c3 -5 10 -6 15 -3 13 9 11 12 -6 12 -8 0 -12 -4 -9 -9z"/>
<path d="M2940 3100 c-9 -6 -10 -10 -3 -10 6 0 15 5 18 10 8 12 4 12 -15 0z"/>
<path d="M2975 3101 c4 -8 2 -17 -6 -22 -9 -6 -10 -9 -2 -9 19 0 27 21 13 33
-10 9 -11 9 -5 -2z"/>
<path d="M1369 3088 c-5 -18 -6 -38 -1 -34 7 8 12 36 6 36 -2 0 -4 -1 -5 -2z"/>
<path d="M3003 3078 c-18 -23 -25 -39 -16 -37 4 1 15 1 23 0 13 -1 13 -2 0
-11 -8 -5 -10 -10 -4 -10 15 0 36 25 28 33 -3 3 -12 3 -20 0 -17 -6 -18 9 -2
25 7 7 9 12 6 12 -3 0 -10 -6 -15 -12z"/>
<path d="M5174 3075 c-3 -8 -4 -20 -1 -27 3 -7 6 -3 6 9 1 12 7 24 14 26 9 4
9 6 -1 6 -7 1 -15 -6 -18 -14z"/>
<path d="M2953 3045 c0 -8 4 -12 9 -9 5 3 6 10 3 15 -9 13 -12 11 -12 -6z"/>
<path d="M3059 3041 c9 -6 11 -16 7 -27 -4 -10 -4 -15 0 -11 4 4 12 3 19 -3
11 -9 37 14 42 37 3 16 -30 9 -35 -7 -3 -7 0 -10 7 -6 7 5 9 1 4 -10 -5 -14
-8 -12 -20 10 -7 14 -19 26 -26 26 -8 0 -8 -3 2 -9z"/>
<path d="M5136 3032 c-2 -4 4 -8 14 -8 10 0 16 4 14 8 -3 4 -9 8 -14 8 -5 0
-11 -4 -14 -8z"/>
<path d="M1354 3018 c-4 -7 -4 -10 1 -6 4 4 16 3 26 -3 11 -5 19 -7 19 -5 0 3
-9 10 -19 16 -15 7 -22 7 -27 -2z"/>
<path d="M1382 2959 c9 -9 14 -20 10 -24 -4 -5 -1 -5 6 -1 21 13 13 -12 -10
-28 -19 -13 -20 -18 -9 -28 8 -7 11 -8 8 -2 -7 12 26 48 35 39 2 -3 5 3 5 13
0 22 -16 43 -29 36 -5 -3 -15 -2 -21 3 -7 4 -5 1 5 -8z"/>
<path d="M5115 2970 c-3 -5 -1 -10 4 -10 6 0 11 5 11 10 0 6 -2 10 -4 10 -3 0
-8 -4 -11 -10z"/>
<path d="M1356 2947 c3 -10 9 -15 12 -12 3 3 0 11 -7 18 -10 9 -11 8 -5 -6z"/>
<path d="M3063 2947 c-3 -6 -1 -7 5 -3 6 4 21 2 33 -5 12 -6 19 -7 15 -1 -3 6
0 12 6 14 7 3 -2 5 -20 5 -18 0 -36 -5 -39 -10z"/>
<path d="M5085 2940 c-3 -6 1 -7 9 -4 18 7 21 14 7 14 -6 0 -13 -4 -16 -10z"/>
<path d="M3105 2910 c10 -11 20 -20 23 -20 3 0 -3 9 -13 20 -10 11 -20 20 -23
20 -3 0 3 -9 13 -20z"/>
<path d="M5030 2909 c0 -5 5 -7 10 -4 6 3 10 8 10 11 0 2 -4 4 -10 4 -5 0 -10
-5 -10 -11z"/>
<path d="M3228 2905 c-12 -13 4 -34 23 -30 12 2 19 -2 19 -11 0 -8 5 -12 10
-9 8 5 7 11 -1 21 -6 8 -14 12 -17 9 -3 -2 -10 2 -16 11 -6 8 -14 12 -18 9z"/>
<path d="M3175 2890 c3 -5 8 -10 11 -10 2 0 4 5 4 10 0 6 -5 10 -11 10 -5 0
-7 -4 -4 -10z"/>
<path d="M5757 2893 c-4 -3 -7 -16 -7 -28 0 -38 -29 -95 -55 -107 -22 -10 -25
-18 -25 -60 0 -30 -7 -59 -17 -75 -14 -21 -18 -45 -16 -112 3 -122 44 -205
156 -315 45 -45 103 -98 128 -120 26 -21 52 -48 59 -61 15 -28 127 -108 140
-100 6 3 7 -1 4 -9 -3 -9 -1 -16 5 -16 6 0 23 -12 39 -27 64 -65 76 -72 90
-57 11 12 9 13 -9 11 -22 -2 -88 67 -76 80 4 4 13 1 19 -5 15 -15 28 -15 28 0
0 6 -3 9 -6 5 -4 -3 -13 1 -21 9 -14 13 -17 13 -34 -2 -11 -10 -19 -12 -19 -6
0 7 5 12 11 12 5 0 7 4 4 10 -3 5 -1 18 5 27 9 15 10 15 5 -5 -6 -21 -5 -22
14 -10 12 7 21 16 21 21 0 4 -5 5 -12 1 -7 -4 -8 -3 -4 4 4 7 13 12 19 12 7 0
13 9 14 20 1 13 -2 18 -9 14 -7 -4 -8 -2 -4 4 4 6 14 8 23 5 12 -5 14 -3 8 8
-5 8 -1 7 12 -4 16 -14 20 -14 20 -2 0 8 -4 12 -9 9 -4 -3 -8 0 -8 5 0 6 4 11
8 11 5 0 16 6 27 13 14 11 15 16 5 22 -9 5 -11 4 -6 -3 4 -7 2 -12 -3 -12 -16
0 -13 16 4 30 8 7 12 16 9 21 -3 5 0 9 5 9 13 0 14 -13 2 -25 -6 -6 -3 -15 6
-24 13 -12 14 -11 8 10 -6 20 -5 22 6 12 7 -7 18 -13 24 -13 5 0 2 5 -7 11
-10 5 -18 15 -18 21 0 7 4 7 13 0 10 -9 17 -4 31 19 10 17 16 32 14 35 -3 2
-11 -7 -18 -21 -14 -27 -36 -35 -26 -10 6 17 -9 21 -17 5 -3 -6 -4 -5 -3 2 2
7 11 12 20 12 10 -1 15 4 14 14 -3 17 18 23 37 13 6 -3 2 3 -10 13 l-20 19 25
-6 c32 -8 53 5 57 35 2 18 1 20 -7 8 -8 -13 -10 -12 -10 3 0 10 -5 15 -10 12
-6 -4 -8 -11 -5 -16 4 -5 -2 -9 -11 -9 -15 0 -15 3 4 23 12 13 19 27 15 32 -5
4 -2 5 5 1 8 -5 12 -1 12 11 0 15 2 15 9 4 7 -10 4 -19 -7 -28 -9 -7 -12 -12
-7 -12 11 0 40 20 46 32 2 5 -7 15 -21 22 -14 8 -19 14 -12 15 18 0 54 -39 46
-52 -4 -7 -3 -8 4 -4 8 5 9 13 3 25 -12 21 -9 47 7 63 7 7 12 18 12 25 0 16
16 17 26 1 4 -6 3 -8 -2 -5 -6 3 -15 -3 -22 -14 -15 -23 -9 -24 23 -3 23 15
23 17 9 39 -10 16 -12 25 -4 30 6 3 8 11 5 16 -3 5 1 6 9 3 40 -15 4 12 -138
105 -184 119 -261 162 -421 230 -66 29 -144 63 -173 77 -59 27 -56 26 -65 17z
m673 -668 c0 -7 -39 -12 -49 -5 -7 4 1 7 18 8 17 0 31 -1 31 -3z m-166 -160
c3 -8 1 -15 -4 -15 -6 0 -10 7 -10 15 0 8 2 15 4 15 2 0 6 -7 10 -15z m-27
-21 c-3 -3 -12 -4 -19 -1 -8 3 -5 6 6 6 11 1 17 -2 13 -5z"/>
<path d="M5011 2863 c7 -12 15 -20 18 -17 3 2 -3 12 -13 22 -17 16 -18 16 -5
-5z"/>
<path d="M3230 2849 c0 -5 5 -7 10 -4 6 3 10 8 10 11 0 2 -4 4 -10 4 -5 0 -10
-5 -10 -11z"/>
<path d="M1361 2824 c0 -11 3 -14 6 -6 3 7 2 16 -1 19 -3 4 -6 -2 -5 -13z"/>
<path d="M3265 2833 c11 -3 23 -10 26 -15 4 -6 8 -4 12 4 3 10 -4 14 -27 15
-18 1 -23 -1 -11 -4z"/>
<path d="M4785 2800 c-9 -15 3 -29 24 -27 17 1 26 27 9 27 -4 0 -8 -4 -8 -10
0 -5 -4 -10 -10 -10 -5 0 -7 7 -4 15 7 17 -1 20 -11 5z"/>
<path d="M3330 2785 c0 -8 2 -15 4 -15 2 0 6 7 10 15 3 8 1 15 -4 15 -6 0 -10
-7 -10 -15z"/>
<path d="M4840 2791 c0 -5 8 -8 18 -7 9 0 16 -5 15 -11 -2 -7 2 -13 7 -13 6 0
10 8 10 18 0 12 -8 18 -25 20 -14 1 -25 -2 -25 -7z"/>
<path d="M4766 2765 c4 -8 12 -15 19 -15 7 0 16 -6 18 -12 4 -8 6 -9 6 -2 1 7
-10 19 -24 28 -21 14 -24 14 -19 1z"/>
<path d="M3393 2753 c1 -22 17 -34 17 -12 0 5 5 7 12 3 7 -4 8 -3 4 5 -4 6
-11 9 -16 6 -4 -3 -10 1 -13 7 -3 7 -4 3 -4 -9z"/>
<path d="M1365 2750 c3 -5 8 -10 11 -10 2 0 4 5 4 10 0 6 -5 10 -11 10 -5 0
-7 -4 -4 -10z"/>
<path d="M3460 2757 c0 -9 30 -37 40 -37 4 0 11 8 15 18 5 13 4 14 -6 5 -10
-10 -16 -9 -31 4 -10 9 -18 13 -18 10z"/>
<path d="M1373 2722 c-9 -5 -6 -12 10 -21 19 -13 21 -12 10 1 -7 8 -10 18 -6
21 9 9 1 8 -14 -1z"/>
<path d="M4605 2710 c-10 -11 -24 -19 -30 -16 -6 2 -12 -6 -13 -17 -1 -17 1
-19 8 -7 5 8 10 11 10 6 0 -6 6 -2 13 8 13 17 15 16 41 -15 16 -19 25 -27 21
-19 -5 8 -17 25 -28 38 -11 12 -16 22 -9 22 6 0 22 -15 37 -32 15 -18 22 -24
16 -13 -6 11 -19 30 -29 43 l-18 23 -19 -21z"/>
<path d="M4676 2715 c4 -8 8 -15 10 -15 2 0 4 7 4 15 0 8 -4 15 -10 15 -5 0
-7 -7 -4 -15z"/>
<path d="M4709 2728 c-6 -21 -5 -37 2 -32 5 3 6 10 3 16 -5 8 -1 9 10 5 10 -4
15 -3 11 3 -5 9 -24 14 -26 8z"/>
<path d="M1414 2704 c5 -15 1 -23 -16 -31 -19 -8 -19 -10 -5 -16 9 -3 17 -2
17 3 0 6 7 10 15 10 19 0 19 10 -1 35 -16 20 -16 20 -10 -1z"/>
<path d="M3447 2703 c5 -12 7 -12 14 -2 6 11 9 10 13 -1 13 -42 14 -44 15 -23
1 21 -12 36 -36 39 -6 1 -9 -5 -6 -13z"/>
<path d="M4770 2710 c0 -5 5 -10 11 -10 5 0 7 5 4 10 -3 6 -8 10 -11 10 -2 0
-4 -4 -4 -10z"/>
<path d="M4535 2680 c3 -5 8 -10 11 -10 2 0 4 5 4 10 0 6 -5 10 -11 10 -5 0
-7 -4 -4 -10z"/>
<path d="M3190 2672 c0 -6 9 -12 20 -15 11 -3 20 -3 20 -1 0 2 -9 8 -20 14
-11 6 -20 7 -20 2z"/>
<path d="M4600 2670 c0 -5 5 -10 11 -10 5 0 7 5 4 10 -3 6 -8 10 -11 10 -2 0
-4 -4 -4 -10z"/>
<path d="M1416 2644 c-8 -22 -8 -24 7 -18 8 3 14 11 14 19 0 20 -13 19 -21 -1z"/>
<path d="M4535 2650 c-3 -5 -1 -10 4 -10 6 0 11 5 11 10 0 6 -2 10 -4 10 -3 0
-8 -4 -11 -10z"/>
<path d="M3715 2639 c-3 -4 2 -6 10 -5 21 3 28 13 10 13 -9 0 -18 -4 -20 -8z"/>
<path d="M4403 2627 c-1 -11 -1 -18 0 -16 2 2 8 11 15 20 9 12 9 16 -1 16 -7
0 -14 -9 -14 -20z"/>
<path d="M4437 2632 c-10 -10 -17 -23 -17 -28 0 -5 5 -1 11 9 9 15 13 16 27 5
15 -11 15 -11 5 3 -7 9 -10 19 -6 22 3 4 4 7 1 7 -3 0 -12 -8 -21 -18z"/>
<path d="M3783 2622 c-9 -15 -8 -19 3 -19 8 0 12 3 9 5 -3 3 0 11 6 19 6 7 7
13 3 13 -5 0 -14 -8 -21 -18z"/>
<path d="M4555 2630 c-4 -6 -12 -7 -18 -4 -7 4 -8 3 -4 -1 13 -15 34 -14 34 1
0 17 -4 18 -12 4z"/>
<path d="M1423 2604 c-15 -16 -16 -24 -4 -24 8 0 24 30 19 35 -2 2 -9 -3 -15
-11z"/>
<path d="M3370 2616 c0 -3 9 -10 20 -16 11 -6 20 -8 20 -6 0 3 -9 10 -20 16
-11 6 -20 8 -20 6z"/>
<path d="M3710 2610 c0 -5 4 -10 9 -10 6 0 13 5 16 10 3 6 -1 10 -9 10 -9 0
-16 -4 -16 -10z"/>
<path d="M3922 2600 c-7 -12 -8 -21 -2 -25 6 -3 10 1 10 10 0 10 5 13 12 9 17
-11 58 -11 51 -1 -3 5 -14 7 -24 4 -11 -3 -23 1 -27 9 -6 11 -10 10 -20 -6z"/>
<path d="M4057 2593 c4 -11 8 -12 13 -3 6 9 9 9 13 -1 5 -12 7 -12 15 0 7 9
11 10 15 2 4 -7 5 -7 3 1 -1 7 -16 13 -33 14 -23 1 -30 -3 -26 -13z"/>
<path d="M3668 2593 c7 -3 16 -2 19 1 4 3 -2 6 -13 5 -11 0 -14 -3 -6 -6z"/>
<path d="M4214 2589 c-4 -7 -3 -9 4 -5 5 3 13 0 15 -6 4 -9 6 -10 6 -1 1 17
-16 25 -25 12z"/>
<path d="M4315 2590 c-4 -6 -1 -9 7 -8 7 2 12 -3 10 -10 -1 -8 2 -11 7 -7 11
6 3 35 -9 35 -5 0 -12 -5 -15 -10z"/>
<path d="M4355 2590 c3 -5 8 -10 11 -10 2 0 4 5 4 10 0 6 -5 10 -11 10 -5 0
-7 -4 -4 -10z"/>
<path d="M3835 2570 c-3 -5 -1 -10 4 -10 6 0 11 5 11 10 0 6 -2 10 -4 10 -3 0
-8 -4 -11 -10z"/>
<path d="M4390 2575 c0 -7 30 -13 34 -7 3 4 -4 9 -15 9 -10 1 -19 0 -19 -2z"/>
<path d="M3788 2563 c7 -3 16 -2 19 1 4 3 -2 6 -13 5 -11 0 -14 -3 -6 -6z"/>
<path d="M3965 2560 c3 -5 8 -10 11 -10 2 0 4 5 4 10 0 6 -5 10 -11 10 -5 0
-7 -4 -4 -10z"/>
<path d="M1415 2540 c-3 -5 -1 -10 4 -10 6 0 11 5 11 10 0 6 -2 10 -4 10 -3 0
-8 -4 -11 -10z"/>
<path d="M4296 2541 c-4 -5 3 -7 14 -4 23 6 26 13 6 13 -8 0 -17 -4 -20 -9z"/>
<path d="M4050 2529 c0 -5 5 -7 10 -4 6 3 10 8 10 11 0 2 -4 4 -10 4 -5 0 -10
-5 -10 -11z"/>
<path d="M4097 2529 c7 -7 15 -10 18 -7 3 3 -2 9 -12 12 -14 6 -15 5 -6 -5z"/>
<path d="M3515 2521 c-6 -11 13 -26 22 -17 4 3 1 6 -6 6 -7 0 -9 5 -6 10 3 6
4 10 1 10 -3 0 -7 -4 -11 -9z"/>
<path d="M1427 2509 c7 -7 15 -10 18 -7 3 3 -2 9 -12 12 -14 6 -15 5 -6 -5z"/>
<path d="M3550 2496 c0 -2 7 -7 16 -10 8 -3 12 -2 9 4 -6 10 -25 14 -25 6z"/>
<path d="M1370 2460 c-13 -8 -12 -10 3 -10 9 0 17 5 17 10 0 12 -1 12 -20 0z"/>
<path d="M3790 2463 c0 -1 8 -7 18 -12 13 -7 19 -6 19 2 0 7 -9 13 -19 13 -10
0 -18 -1 -18 -3z"/>
<path d="M6555 2446 c-18 -13 -18 -15 10 -40 32 -30 42 -28 23 4 -10 18 -10
24 0 27 6 3 10 9 6 14 -7 12 -17 11 -39 -5z"/>
<path d="M6596 2421 c-3 -5 0 -11 7 -13 17 -7 38 2 31 13 -7 12 -31 12 -38 0z"/>
<path d="M3810 2416 c0 -2 7 -7 16 -10 8 -3 12 -2 9 4 -6 10 -25 14 -25 6z"/>
<path d="M3958 2373 c7 -3 16 -2 19 1 4 3 -2 6 -13 5 -11 0 -14 -3 -6 -6z"/>
<path d="M4088 2373 c7 -3 16 -2 19 1 4 3 -2 6 -13 5 -11 0 -14 -3 -6 -6z"/>
<path d="M6536 2362 c-3 -4 4 -9 15 -9 23 -2 25 3 4 10 -8 4 -16 3 -19 -1z"/>
<path d="M6501 2341 c-8 -5 -9 -11 -3 -15 5 -3 12 1 16 9 6 17 6 18 -13 6z"/>
<path d="M6720 2340 c-9 -6 -10 -10 -3 -10 6 0 15 5 18 10 8 12 4 12 -15 0z"/>
<path d="M6455 2269 c-4 -6 -4 -13 -1 -16 3 -4 6 -1 6 6 0 7 5 9 12 5 7 -4 8
-3 4 4 -9 15 -13 15 -21 1z"/>
<path d="M3185 2250 c-11 -5 -34 -9 -51 -9 -21 -1 -37 -9 -46 -23 -12 -18 -26
-22 -84 -26 -140 -7 -274 -83 -396 -224 -88 -101 -109 -133 -102 -154 4 -14 3
-15 -4 -6 -7 10 -13 7 -27 -15 -10 -15 -30 -39 -45 -53 -14 -14 -18 -19 -9
-12 10 8 23 11 30 6 7 -4 10 -3 6 3 -13 21 37 23 56 2 11 -11 22 -18 25 -15 3
4 -3 13 -14 21 -10 8 -14 15 -9 15 6 1 18 3 27 5 10 2 20 -1 24 -6 3 -5 10 -6
16 -3 7 4 8 2 4 -5 -4 -6 -11 -9 -16 -6 -5 3 -12 0 -16 -6 -4 -7 -3 -9 4 -5 6
3 18 -2 28 -11 17 -17 18 -17 10 2 -4 11 -4 16 0 12 4 -4 13 -2 21 5 10 8 17
8 26 -1 9 -10 8 -11 -7 -5 -15 6 -17 4 -11 -6 6 -9 4 -11 -5 -5 -8 5 -11 4 -6
-3 3 -6 -2 -15 -11 -21 -10 -6 -13 -11 -7 -11 5 0 15 5 22 12 17 17 40 18 46
1 3 -7 2 -11 -3 -8 -5 3 -13 0 -17 -7 -4 -7 -4 -10 1 -6 4 4 20 1 36 -7 20
-11 30 -12 35 -3 5 7 3 8 -6 3 -9 -5 -11 -4 -6 3 5 8 2 10 -8 6 -9 -3 -16 -2
-16 4 0 15 31 8 45 -11 7 -9 16 -13 20 -9 5 4 5 1 1 -5 -9 -16 6 -17 21 -2 8
8 13 7 18 -2 5 -8 4 -10 -3 -5 -7 4 -12 3 -12 -3 0 -5 -8 -12 -17 -14 -17 -4
-17 -5 0 -6 12 -1 16 -5 11 -13 -5 -9 -3 -9 9 1 14 11 18 11 23 -3 3 -9 10
-14 14 -11 5 3 11 1 15 -5 3 -5 17 -7 31 -4 18 5 24 2 24 -10 0 -9 -6 -13 -15
-10 -18 7 -37 -4 -29 -17 3 -6 10 -6 17 -1 7 5 20 8 29 7 9 -2 15 2 12 9 -3 7
8 12 27 12 19 1 26 -1 19 -6 -7 -4 -9 -14 -6 -21 4 -8 0 -5 -8 5 -13 16 -16
17 -16 4 0 -9 6 -18 13 -20 17 -7 38 2 32 12 -3 5 -1 12 5 15 6 4 9 1 8 -7 -2
-8 5 -13 18 -12 11 1 21 -5 21 -12 0 -8 -7 -14 -14 -14 -8 0 -12 4 -9 8 3 5
-1 9 -9 9 -10 0 -9 -6 5 -25 11 -13 17 -29 13 -35 -4 -6 -1 -7 6 -3 7 5 10 14
7 22 -3 9 2 14 14 14 11 0 20 -5 20 -11 0 -5 -5 -7 -12 -3 -6 4 -8 3 -5 -3 3
-5 -3 -25 -15 -44 l-20 -34 21 19 c11 11 21 23 21 27 0 5 16 30 36 56 35 46
84 141 123 240 29 73 51 154 41 148 -5 -3 -14 14 -20 37 -7 24 -21 69 -32 101
-10 31 -17 61 -13 66 13 23 -17 20 -38 -3 l-24 -26 -13 25 c-17 32 2 61 69
104 59 38 68 49 26 31z m-675 -478 c0 -4 -9 -8 -19 -8 -15 0 -17 3 -9 13 10
12 28 9 28 -5z m314 -144 c-3 -4 2 -8 11 -8 9 0 13 5 10 10 -10 16 1 11 16 -7
10 -11 10 -14 2 -9 -7 4 -13 2 -13 -3 0 -16 -12 -13 -40 9 -24 18 -24 19 -3
17 12 0 19 -5 17 -9z"/>
<path d="M4478 2042 c-81 -82 -118 -153 -118 -228 -1 -36 -6 -67 -15 -78 -9
-11 -15 -41 -15 -68 0 -27 -4 -79 -10 -116 -14 -92 -18 -242 -8 -248 5 -3 4
-12 -3 -20 -6 -8 -8 -14 -4 -14 4 0 3 -6 -2 -12 -14 -17 -12 -46 1 -44 25 4
37 18 27 30 -14 17 -6 24 24 19 15 -3 22 -10 18 -19 -3 -8 -1 -14 5 -14 5 0 8
17 7 38 -2 20 -1 31 2 24 2 -6 10 -9 16 -5 14 9 70 13 62 4 -3 -3 -18 -6 -33
-7 -37 -2 -36 -2 -21 -21 10 -11 10 -14 2 -9 -8 4 -13 2 -13 -4 0 -6 8 -10 18
-8 9 2 16 9 15 15 -2 7 6 10 17 8 11 -2 22 0 25 6 8 12 35 12 35 -1 0 -5 -6
-8 -12 -6 -7 1 -10 1 -5 -1 4 -3 5 -8 2 -12 -2 -4 8 -7 22 -6 15 0 29 7 31 15
8 24 30 41 37 30 4 -6 11 -7 17 -4 6 4 5 -3 -2 -16 -6 -12 -9 -24 -7 -27 3 -3
12 7 19 22 13 25 15 25 29 9 12 -16 12 -17 -4 -11 -10 4 -16 3 -12 -2 3 -6 14
-9 25 -8 13 1 16 5 10 11 -17 17 -11 22 19 22 17 0 28 -3 25 -7 -2 -5 -12 -5
-21 -2 -15 6 -16 5 -3 -9 14 -15 17 -15 36 5 12 12 20 25 18 28 -2 3 3 6 10 6
8 0 12 -6 9 -14 -3 -7 -8 -13 -12 -13 -4 0 -8 -7 -8 -15 0 -10 4 -12 10 -6 5
5 16 7 24 4 12 -5 14 -1 8 15 -4 14 -2 22 6 22 8 0 9 3 0 13 -8 10 -7 14 3 14
10 0 13 -8 10 -25 -4 -20 -2 -23 8 -15 16 13 67 10 93 -5 16 -8 24 -7 37 5 17
15 18 14 18 -5 0 -20 -10 -27 -33 -23 -5 1 -5 -3 -2 -9 4 -6 10 -9 13 -6 3 3
14 -2 25 -11 11 -10 17 -13 14 -7 -4 7 -9 65 -12 130 -6 161 -38 350 -64 385
-12 16 -21 36 -21 45 0 31 -74 167 -93 172 -15 4 -18 11 -13 36 6 27 5 29 -7
12 -13 -18 -15 -18 -43 3 -35 25 -124 55 -124 41 0 -22 -31 -8 -42 19 l-13 30
-57 -57z m353 -725 c-10 -9 -11 -8 -5 6 3 10 9 15 12 12 3 -3 0 -11 -7 -18z
m39 4 c0 -5 -7 -12 -16 -15 -14 -5 -15 -4 -4 9 14 17 20 19 20 6z m24 -13 c-5
-8 -2 -9 9 -5 17 6 31 -5 20 -16 -9 -9 -44 13 -38 24 4 5 8 9 11 9 3 0 2 -5
-2 -12z m-177 -4 c-3 -3 -12 -4 -19 -1 -8 3 -5 6 6 6 11 1 17 -2 13 -5z m-180
-37 c0 -8 -6 -14 -13 -14 -7 0 -10 6 -7 14 3 7 8 13 12 13 4 0 8 -6 8 -13z
m-213 -38 c-6 -11 -24 -2 -24 11 0 5 7 7 15 4 8 -4 12 -10 9 -15z"/>
<path d="M6305 2040 c-3 -5 -1 -10 4 -10 6 0 11 5 11 10 0 6 -2 10 -4 10 -3 0
-8 -4 -11 -10z"/>
<path d="M6281 2024 c0 -11 3 -14 6 -6 3 7 2 16 -1 19 -3 4 -6 -2 -5 -13z"/>
<path d="M6230 1987 c0 -8 6 -17 14 -20 9 -4 13 0 12 11 -3 20 -26 29 -26 9z"/>
<path d="M6210 1949 c0 -5 5 -7 10 -4 6 3 10 8 10 11 0 2 -4 4 -10 4 -5 0 -10
-5 -10 -11z"/>
<path d="M2446 1707 c3 -10 9 -15 12 -12 3 3 0 11 -7 18 -10 9 -11 8 -5 -6z"/>
<path d="M2715 1650 c-3 -5 -1 -10 4 -10 6 0 11 5 11 10 0 6 -2 10 -4 10 -3 0
-8 -4 -11 -10z"/>
<path d="M4566 1264 c-8 -22 -8 -24 6 -24 6 0 8 3 5 7 -4 3 -2 12 4 20 7 8 8
13 1 13 -5 0 -13 -7 -16 -16z"/>
<path d="M4821 1270 c6 -4 7 -10 3 -12 -5 -3 -4 -4 2 -2 6 1 18 -3 25 -9 11
-10 11 -9 0 5 -10 14 -9 17 11 21 13 2 6 4 -15 4 -21 0 -33 -3 -26 -7z"/>
<path d="M4782 1254 c-7 -8 -8 -14 -3 -14 10 0 25 19 20 25 -2 1 -10 -3 -17
-11z"/>
<path d="M4446 1243 c-3 -8 -1 -11 5 -8 5 4 18 1 27 -7 15 -11 15 -11 5 3 -7
9 -11 18 -8 21 3 2 -2 5 -10 5 -8 0 -17 -7 -19 -14z"/>
<path d="M4711 1234 c0 -11 3 -14 6 -6 3 7 2 16 -1 19 -3 4 -6 -2 -5 -13z"/>
<path d="M4340 1210 c-6 -11 -8 -20 -6 -20 3 0 10 9 16 20 6 11 8 20 6 20 -3
0 -10 -9 -16 -20z"/>
<path d="M4655 1220 c-3 -5 -1 -10 4 -10 6 0 11 5 11 10 0 6 -2 10 -4 10 -3 0
-8 -4 -11 -10z"/>
<path d="M4450 1210 c8 -5 20 -10 25 -10 6 0 3 5 -5 10 -8 5 -19 10 -25 10 -5
0 -3 -5 5 -10z"/>
<path d="M4950 1194 c0 -10 5 -26 10 -34 8 -11 9 -7 4 15 -8 37 -14 45 -14 19z"/>
<path d="M4292 1170 c0 -14 2 -19 5 -12 2 6 2 18 0 25 -3 6 -5 1 -5 -13z"/>
</g>
</svg>
